<svg id="svg" version="1.1" xmlns="http://www.w3.org/2000/svg" xmlns:xlink="http://www.w3.org/1999/xlink" width="400" height="215.78125" viewBox="0, 0, 400,215.78125"><g id="svgg"><path id="path0" d="M47.568 87.842 C 42.221 88.106,36.541 89.205,32.083 90.838 C 30.892 91.274,29.729 91.686,29.500 91.753 C 27.244 92.412,19.107 97.325,17.452 99.027 C 17.288 99.195,17.093 99.333,17.019 99.333 C 16.561 99.333,11.629 104.548,10.004 106.750 C 9.328 107.667,8.573 108.681,8.327 109.003 C 8.081 109.326,7.709 109.926,7.500 110.337 C 7.292 110.747,6.898 111.410,6.624 111.808 C 6.351 112.207,5.759 113.332,5.308 114.308 C 4.857 115.285,4.415 116.216,4.325 116.377 C 3.953 117.045,2.635 120.446,2.504 121.073 C 2.427 121.445,2.131 122.537,1.847 123.500 C 0.315 128.684,-0.053 132.017,0.043 139.833 C 0.129 146.962,0.345 148.695,1.937 155.083 C 3.034 159.484,3.511 160.944,5.525 166.063 C 6.688 169.018,10.591 176.577,11.719 178.058 C 11.939 178.347,12.275 178.891,12.467 179.268 C 13.073 180.458,17.671 186.744,18.919 188.088 C 19.256 188.452,19.728 189.012,19.966 189.333 C 21.187 190.976,27.647 197.393,28.833 198.142 C 29.063 198.287,29.587 198.696,30.000 199.052 C 30.893 199.823,36.102 203.333,36.352 203.333 C 36.448 203.333,36.922 203.596,37.406 203.917 C 38.902 204.910,44.318 207.418,47.000 208.359 C 50.574 209.614,53.777 210.660,54.054 210.663 C 54.222 210.665,55.722 211.002,57.388 211.412 C 61.061 212.317,64.732 212.959,67.417 213.168 C 68.517 213.254,70.392 213.417,71.583 213.532 C 76.607 214.016,86.627 213.765,93.500 212.984 C 98.483 212.418,105.919 210.584,110.083 208.896 C 115.248 206.802,117.209 205.278,118.988 201.978 C 119.644 200.761,119.866 200.193,121.262 196.167 C 121.999 194.040,122.080 193.726,123.079 189.083 C 123.983 184.882,124.712 180.046,124.914 176.917 C 125.725 164.358,125.102 153.862,122.998 144.617 C 122.722 143.407,122.413 142.042,122.310 141.583 C 121.643 138.622,119.398 132.326,117.980 129.441 C 117.716 128.905,117.500 128.381,117.500 128.278 C 117.500 127.066,111.008 117.242,108.519 114.689 C 108.016 114.172,107.412 113.509,107.177 113.215 C 106.942 112.920,105.888 111.889,104.833 110.924 C 103.779 109.958,102.692 108.945,102.417 108.673 C 101.209 107.477,94.839 102.519,93.414 101.667 C 93.031 101.438,92.050 100.814,91.234 100.282 C 86.489 97.186,79.298 93.624,74.583 92.034 C 70.043 90.503,66.821 89.607,64.250 89.159 C 57.045 87.906,52.894 87.578,47.568 87.842 " stroke="none" fill="" fill-rule="evenodd"></path><path id="path1" d="M251.833 0.260 C 248.653 0.574,245.998 0.949,242.917 1.518 C 241.450 1.789,239.275 2.188,238.083 2.404 C 232.761 3.372,222.369 6.518,216.833 8.838 C 215.688 9.319,214.375 9.842,213.917 10.001 C 213.175 10.258,210.714 11.375,207.000 13.140 C 206.313 13.467,205.323 13.975,204.800 14.270 C 204.278 14.564,203.691 14.856,203.495 14.918 C 203.300 14.980,202.415 15.449,201.528 15.961 C 200.642 16.472,199.539 17.084,199.078 17.320 C 198.617 17.557,197.504 18.200,196.606 18.750 C 195.707 19.300,194.599 19.957,194.143 20.211 C 193.688 20.465,192.738 21.065,192.032 21.544 C 191.327 22.024,190.620 22.492,190.461 22.583 C 189.772 22.981,185.812 25.726,184.878 26.453 C 184.316 26.891,183.632 27.400,183.358 27.583 C 182.566 28.115,179.864 30.206,178.479 31.358 C 177.780 31.940,176.920 32.642,176.567 32.917 C 172.150 36.360,160.864 47.501,159.895 49.375 C 159.765 49.627,159.599 49.833,159.527 49.833 C 159.358 49.833,155.773 54.553,154.992 55.803 C 154.666 56.324,154.122 57.113,153.781 57.557 C 153.441 58.001,152.959 58.713,152.710 59.140 C 152.460 59.567,151.749 60.736,151.128 61.737 C 150.508 62.738,150.000 63.618,150.000 63.692 C 150.000 63.766,149.723 64.260,149.385 64.788 C 148.788 65.721,145.000 73.213,145.000 73.460 C 145.000 73.528,144.589 74.483,144.087 75.583 C 142.743 78.525,140.601 84.391,139.188 89.000 C 135.798 100.056,133.430 113.622,132.657 126.417 C 132.375 131.072,132.535 147.490,132.900 151.417 C 133.740 160.447,135.140 169.430,136.615 175.250 C 137.033 176.900,137.436 178.588,137.510 179.000 C 137.907 181.195,140.449 188.525,142.016 191.992 C 145.890 200.563,148.445 203.088,156.833 206.635 C 157.887 207.081,159.237 207.607,159.833 207.804 C 163.023 208.858,166.750 209.998,168.000 210.301 C 173.489 211.631,177.760 212.558,180.000 212.905 C 185.496 213.755,187.408 214.030,190.417 214.403 C 210.993 216.954,234.966 215.811,253.208 211.409 C 254.881 211.005,256.887 210.522,257.667 210.334 C 259.354 209.929,264.256 208.419,267.167 207.409 C 272.503 205.556,275.960 204.121,280.612 201.828 C 282.094 201.098,283.348 200.500,283.398 200.500 C 283.449 200.500,284.111 200.135,284.870 199.689 C 285.629 199.243,286.771 198.598,287.409 198.256 C 289.675 197.040,295.777 192.976,297.427 191.583 C 297.861 191.217,298.336 190.869,298.483 190.812 C 298.630 190.754,299.209 190.296,299.770 189.795 C 300.330 189.294,301.080 188.669,301.436 188.405 C 302.849 187.359,306.733 183.612,309.973 180.167 C 314.220 175.650,314.385 175.470,315.078 174.583 C 315.436 174.125,315.862 173.619,316.024 173.459 C 316.186 173.299,316.365 172.886,316.423 172.542 C 317.130 168.344,319.386 162.844,322.723 157.186 C 323.609 155.684,324.333 154.433,324.333 154.405 C 324.333 154.378,323.781 154.610,323.105 154.923 C 321.797 155.527,317.885 156.730,316.603 156.922 C 315.837 157.037,315.829 157.045,314.814 158.727 C 310.282 166.242,296.269 180.177,290.144 183.261 C 281.507 187.611,276.518 183.223,276.121 170.927 L 276.083 169.770 274.479 171.927 C 267.306 181.571,260.943 185.716,254.905 184.680 C 250.146 183.863,245.857 178.620,245.065 172.649 L 244.958 171.837 243.520 173.199 C 234.327 181.907,227.484 185.204,219.492 184.776 C 212.013 184.376,206.503 180.023,204.478 172.917 C 204.269 172.183,204.079 171.556,204.057 171.522 C 204.034 171.488,203.318 172.088,202.466 172.856 C 191.149 183.053,182.552 186.618,175.645 183.977 C 165.308 180.026,164.238 164.039,172.579 138.167 C 176.310 126.591,183.186 110.423,184.614 109.867 C 184.872 109.766,186.733 109.077,188.750 108.336 C 190.767 107.595,193.392 106.618,194.583 106.166 C 199.242 104.395,199.754 104.315,200.755 105.193 C 203.046 107.205,203.616 113.529,202.239 121.663 C 200.366 132.725,194.609 142.958,182.567 156.630 L 181.550 157.784 181.334 161.491 C 180.575 174.495,184.907 179.015,193.359 174.040 C 196.118 172.416,203.833 165.552,203.833 164.722 C 203.833 164.486,203.950 163.507,204.093 162.546 C 205.889 150.448,216.074 138.707,226.333 136.907 C 234.913 135.402,241.343 139.369,241.331 146.160 C 241.319 153.241,234.718 158.891,220.984 163.575 L 217.050 164.917 217.418 166.304 C 219.182 172.961,224.228 176.385,230.629 175.268 C 234.373 174.615,237.262 172.752,242.787 167.429 L 244.949 165.347 245.317 163.382 C 246.895 154.953,252.815 146.466,260.833 141.136 C 270.798 134.511,279.278 134.819,282.988 141.940 L 283.347 142.629 285.215 141.629 C 286.243 141.079,287.158 140.572,287.250 140.501 C 287.342 140.430,288.317 139.885,289.417 139.289 C 290.517 138.693,292.106 137.822,292.947 137.353 L 294.478 136.500 296.072 136.500 C 297.002 136.500,297.667 136.568,297.667 136.663 C 297.667 136.909,296.746 140.094,295.835 143.000 C 295.390 144.421,294.789 146.408,294.501 147.417 C 294.212 148.425,293.605 150.441,293.152 151.896 C 287.755 169.226,287.955 175.692,293.833 173.847 C 296.492 173.012,304.126 165.734,308.754 159.622 C 311.126 156.490,311.034 156.808,309.768 156.099 C 305.680 153.814,305.091 149.657,307.973 143.448 C 310.159 138.738,313.082 136.500,317.044 136.500 C 321.769 136.500,322.666 139.861,320.071 147.841 C 319.574 149.371,319.167 150.660,319.167 150.705 C 319.167 150.873,320.937 150.459,322.220 149.991 C 326.486 148.433,330.281 144.774,333.726 138.895 L 334.910 136.873 335.896 136.770 C 336.439 136.713,337.302 136.666,337.816 136.664 C 339.090 136.661,339.364 136.361,339.976 134.304 C 340.066 133.999,340.546 132.775,341.041 131.583 C 341.991 129.296,344.720 121.065,345.322 118.667 C 345.518 117.888,345.980 116.087,346.349 114.667 C 346.940 112.391,347.374 110.145,348.259 104.797 C 350.235 92.857,350.146 80.888,347.995 69.167 C 347.192 64.793,346.882 63.465,345.816 59.833 C 344.895 56.700,344.457 55.445,342.668 50.825 C 341.443 47.660,337.439 40.010,335.805 37.712 C 335.493 37.275,335.065 36.617,334.852 36.250 C 332.944 32.962,327.494 26.649,322.333 21.751 C 320.469 19.982,314.589 15.396,313.395 14.781 C 313.108 14.633,312.645 14.320,312.366 14.085 C 311.061 12.987,302.739 8.453,300.427 7.580 C 299.871 7.370,298.704 6.884,297.833 6.498 C 295.442 5.440,287.380 2.857,285.389 2.511 C 284.946 2.434,283.083 2.066,281.250 1.693 C 273.168 0.050,260.307 -0.576,251.833 0.260 M259.500 95.583 L 259.500 97.333 258.083 97.333 L 256.667 97.333 256.667 95.583 L 256.667 93.833 258.083 93.833 L 259.500 93.833 259.500 95.583 M266.500 100.833 C 266.500 104.683,266.557 107.833,266.626 107.833 C 266.696 107.833,268.364 106.221,270.333 104.250 L 273.914 100.667 275.624 100.667 C 276.564 100.667,277.333 100.730,277.333 100.807 C 277.333 100.884,276.021 102.223,274.417 103.782 C 272.813 105.341,271.500 106.663,271.500 106.719 C 271.500 106.817,275.429 113.176,277.518 116.460 C 278.058 117.308,278.500 118.042,278.500 118.090 C 278.500 118.139,277.732 118.157,276.793 118.131 L 275.086 118.083 272.251 113.552 C 270.692 111.060,269.358 108.964,269.287 108.894 C 269.215 108.825,268.559 109.362,267.828 110.088 L 266.500 111.409 266.500 114.788 L 266.500 118.167 265.167 118.167 L 263.833 118.167 263.833 106.000 L 263.833 93.833 265.167 93.833 L 266.500 93.833 266.500 100.833 M283.667 95.583 L 283.667 97.333 282.250 97.333 L 280.833 97.333 280.833 95.694 C 280.833 93.728,280.747 93.833,282.361 93.833 L 283.667 93.833 283.667 95.583 M291.667 98.250 L 291.667 100.667 293.083 100.667 L 294.500 100.667 294.500 101.833 L 294.500 103.000 293.083 103.000 L 291.667 103.000 291.667 109.315 C 291.667 116.795,291.575 116.419,293.402 116.413 L 294.500 116.410 294.500 117.519 C 294.500 118.829,294.498 118.830,292.417 118.827 C 288.940 118.824,288.836 118.555,288.834 109.633 L 288.833 103.015 287.708 102.966 L 286.583 102.917 286.583 101.833 L 286.583 100.750 287.708 100.701 L 288.833 100.651 288.833 98.353 C 288.833 95.649,288.721 95.833,290.361 95.833 L 291.667 95.833 291.667 98.250 M230.999 100.345 C 233.528 100.755,235.237 102.214,235.584 104.258 C 235.645 104.620,235.732 105.048,235.776 105.208 C 235.848 105.470,235.704 105.500,234.371 105.500 L 232.886 105.500 232.693 104.856 C 231.790 101.842,225.667 102.214,225.667 105.283 C 225.667 106.736,226.637 107.361,230.167 108.183 C 234.870 109.278,236.369 110.519,236.384 113.333 C 236.403 116.790,233.752 118.833,229.250 118.833 C 225.415 118.833,223.101 117.397,222.512 114.652 C 222.151 112.966,222.124 113.000,223.814 113.000 L 225.295 113.000 225.409 113.757 C 225.936 117.274,233.500 117.109,233.500 113.581 C 233.500 112.152,232.665 111.618,229.054 110.735 C 225.306 109.819,223.680 108.942,223.116 107.533 C 221.361 103.146,225.424 99.440,230.999 100.345 M248.380 100.412 C 251.183 101.006,253.001 102.919,253.420 105.715 L 253.538 106.500 252.115 106.500 L 250.693 106.500 250.576 105.958 C 249.677 101.794,243.912 101.735,242.363 105.875 C 240.755 110.174,242.180 115.198,245.261 116.094 C 247.791 116.829,249.886 115.673,250.634 113.130 L 250.917 112.167 252.292 112.167 C 253.847 112.167,253.835 112.152,253.490 113.648 C 251.973 120.227,242.644 120.784,239.752 114.468 C 236.390 107.124,241.416 98.936,248.380 100.412 M259.417 109.417 L 259.417 118.083 258.042 118.132 L 256.667 118.180 256.667 109.417 L 256.667 100.653 258.042 100.702 L 259.417 100.750 259.417 109.417 M283.667 109.417 L 283.667 118.167 282.333 118.167 L 281.000 118.167 281.000 109.417 L 281.000 100.667 282.333 100.667 L 283.667 100.667 283.667 109.417 M195.296 111.984 C 192.236 115.387,187.290 129.874,184.175 144.558 C 183.711 146.744,183.282 148.732,183.221 148.975 C 183.137 149.311,183.350 149.137,184.110 148.250 C 191.783 139.300,197.592 127.031,198.511 117.833 C 199.044 112.497,197.447 109.592,195.296 111.984 M272.331 141.312 C 264.229 143.905,255.598 166.082,260.292 172.245 C 265.268 178.778,275.609 168.122,278.593 153.386 C 280.411 144.407,277.884 139.535,272.331 141.312 M225.098 141.421 C 220.559 143.141,216.667 151.513,216.667 159.554 L 216.667 160.860 217.208 160.742 C 220.320 160.069,225.119 157.413,227.151 155.240 C 232.759 149.246,231.250 139.088,225.098 141.421 " stroke="none" fill="" fill-rule="evenodd"></path><path id="path2" d="M197.250 105.318 C 196.242 105.671,194.029 106.483,192.333 107.121 C 190.637 107.760,188.131 108.687,186.764 109.183 L 184.278 110.083 182.237 114.250 C 170.797 137.603,164.590 164.283,168.084 175.083 C 172.497 188.724,185.831 187.798,202.464 172.695 C 203.316 171.922,204.053 171.331,204.103 171.380 C 204.153 171.430,204.343 172.059,204.526 172.777 C 206.772 181.579,215.577 186.344,225.622 184.193 C 231.180 183.003,236.834 179.487,243.457 173.101 C 244.213 172.372,244.865 171.810,244.907 171.851 C 244.948 171.892,245.099 172.495,245.243 173.189 C 247.811 185.624,258.354 188.381,268.053 179.156 C 270.425 176.900,275.540 170.792,275.949 169.727 C 276.184 169.113,276.292 169.730,276.383 172.208 C 276.700 180.836,279.196 184.603,284.575 184.572 C 288.974 184.546,291.778 182.848,300.415 174.981 C 307.470 168.555,312.528 162.693,315.346 157.680 C 315.695 157.059,315.785 157.008,316.983 156.752 C 318.609 156.406,321.383 155.512,323.165 154.761 C 323.933 154.437,324.577 154.189,324.596 154.211 C 324.615 154.232,324.002 155.282,323.233 156.542 C 320.084 161.705,317.672 167.194,316.828 171.120 C 316.655 171.925,316.437 172.883,316.344 173.250 C 315.681 175.859,316.786 180.067,318.729 182.333 C 322.332 186.537,328.494 185.608,336.314 179.682 C 336.991 179.170,337.741 178.620,337.981 178.461 C 338.514 178.108,340.566 176.322,343.054 174.046 L 344.917 172.342 345.018 175.463 C 345.142 179.272,345.516 184.589,345.677 184.850 C 345.762 184.988,346.665 184.824,348.877 184.271 C 350.572 183.847,352.085 183.500,352.240 183.500 C 352.394 183.500,353.781 183.191,355.321 182.812 L 358.121 182.125 358.219 177.771 C 358.412 169.290,359.656 162.820,361.438 161.038 C 361.566 160.910,361.874 160.530,362.120 160.194 C 362.367 159.858,362.988 159.133,363.501 158.583 C 364.013 158.033,364.644 157.302,364.903 156.958 C 365.162 156.613,365.646 156.049,365.979 155.702 C 366.311 155.356,367.333 154.256,368.250 153.257 C 369.167 152.258,370.140 151.248,370.413 151.012 C 370.685 150.776,371.367 150.152,371.927 149.625 C 372.487 149.098,372.988 148.667,373.041 148.667 C 373.094 148.667,373.536 148.405,374.022 148.084 C 376.261 146.610,377.550 147.224,377.125 149.561 C 376.910 150.745,375.185 155.638,373.519 159.789 C 372.959 161.186,372.500 162.439,372.500 162.575 C 372.500 162.711,372.197 163.706,371.826 164.786 C 368.389 174.808,369.344 181.637,374.525 184.091 L 375.917 184.750 378.333 184.745 L 380.750 184.741 383.153 183.919 C 386.451 182.791,389.650 180.866,393.500 177.693 C 394.663 176.734,395.093 176.336,397.791 173.723 L 399.999 171.583 399.996 168.167 L 399.993 164.750 398.788 166.069 C 390.937 174.664,386.417 177.270,384.812 174.125 C 384.405 173.328,384.375 171.520,384.745 170.167 C 384.883 169.662,384.997 169.116,384.998 168.952 C 384.999 168.789,385.424 167.514,385.941 166.119 C 386.459 164.724,387.123 162.908,387.417 162.083 C 387.710 161.258,388.412 159.371,388.975 157.889 C 389.539 156.407,390.000 155.089,390.000 154.960 C 390.000 154.831,390.192 154.168,390.427 153.488 C 391.169 151.342,392.135 147.315,392.325 145.577 C 393.021 139.232,388.919 135.189,383.245 136.628 C 380.872 137.230,376.968 139.323,375.283 140.897 C 375.026 141.137,374.757 141.333,374.684 141.333 C 374.568 141.333,371.224 144.378,368.736 146.750 C 367.272 148.145,362.500 153.304,362.500 153.491 C 362.500 153.588,362.439 153.667,362.365 153.667 C 362.184 153.667,362.530 151.723,362.986 150.167 C 363.311 149.059,363.658 147.959,365.377 142.583 C 365.612 141.850,366.185 140.253,366.652 139.035 C 367.615 136.520,367.647 136.337,367.125 136.324 C 366.919 136.319,363.817 136.901,360.233 137.616 L 353.717 138.917 353.206 140.083 C 351.846 143.188,350.407 146.712,349.838 148.333 C 349.725 148.654,349.184 150.192,348.636 151.750 C 348.088 153.308,347.580 154.921,347.507 155.333 C 347.435 155.746,347.183 156.806,346.948 157.689 C 346.466 159.497,345.667 163.467,345.667 164.055 C 345.667 164.734,342.007 168.425,337.975 171.813 C 332.813 176.150,328.545 172.194,330.403 164.794 C 331.015 162.355,334.902 150.862,336.336 147.250 C 336.627 146.517,337.074 145.279,337.329 144.500 C 337.584 143.721,338.289 141.791,338.896 140.211 C 339.503 138.631,340.000 137.121,340.000 136.856 L 340.000 136.375 338.958 136.598 C 338.385 136.721,337.266 136.824,336.470 136.827 L 335.023 136.833 334.317 138.125 C 330.375 145.334,325.005 150.004,319.792 150.757 C 318.846 150.893,318.855 150.975,319.595 149.000 C 321.945 142.724,321.894 138.273,319.459 137.105 C 315.852 135.376,311.224 137.570,308.734 142.188 C 305.114 148.901,305.559 153.628,310.049 156.162 C 310.643 156.497,310.956 156.771,310.884 156.891 C 309.411 159.337,306.105 163.268,302.520 166.837 C 296.641 172.689,294.921 173.983,292.825 174.135 C 287.927 174.489,287.859 168.908,292.572 153.417 C 293.628 149.945,295.501 143.734,296.845 139.250 C 297.229 137.967,297.579 136.823,297.623 136.708 C 297.843 136.131,294.768 136.459,293.556 137.142 C 292.930 137.496,291.329 138.385,290.000 139.118 C 288.671 139.851,286.680 140.949,285.576 141.559 C 283.200 142.870,283.324 142.852,282.887 141.958 C 280.014 136.085,272.974 134.830,265.097 138.785 C 254.907 143.902,247.471 153.210,245.421 163.417 L 245.019 165.417 243.051 167.317 C 236.472 173.671,233.712 175.276,229.061 175.457 C 223.123 175.688,219.594 173.126,217.587 167.127 C 216.772 164.692,216.740 164.803,218.375 164.335 C 230.774 160.788,239.506 154.775,240.910 148.816 C 243.000 139.952,234.815 134.488,224.083 137.582 C 214.450 140.359,204.986 152.755,204.066 163.801 L 203.951 165.184 201.684 167.322 C 194.801 173.812,191.282 175.988,187.651 175.998 C 182.442 176.011,180.365 170.602,181.298 159.448 L 181.449 157.647 182.200 156.865 C 187.913 150.919,194.439 141.714,197.879 134.750 C 203.486 123.402,204.686 106.872,200.047 104.895 C 199.325 104.587,199.339 104.585,197.250 105.318 M197.627 111.542 C 200.919 114.939,196.977 129.508,189.678 140.917 C 187.050 145.026,182.687 150.501,183.055 149.228 C 183.105 149.057,183.307 148.092,183.504 147.083 C 185.670 136.017,189.472 123.249,192.665 116.318 C 194.875 111.521,196.288 110.161,197.627 111.542 M276.275 141.333 C 280.802 143.297,280.315 152.851,275.146 163.500 C 271.663 170.676,268.018 174.249,264.180 174.250 C 257.530 174.251,256.994 164.157,262.994 151.917 C 267.233 143.269,271.994 139.475,276.275 141.333 M228.017 141.190 C 229.800 141.787,230.547 143.159,230.635 146.000 C 230.843 152.745,226.743 157.659,218.620 160.395 C 216.340 161.163,216.500 161.212,216.500 159.743 C 216.500 149.425,222.714 139.414,228.017 141.190 " stroke="none" fill="" fill-rule="evenodd"></path><path id="path3" d="M256.667 95.583 L 256.667 97.333 258.083 97.333 L 259.500 97.333 259.500 95.583 L 259.500 93.833 258.083 93.833 L 256.667 93.833 256.667 95.583 M263.833 106.000 L 263.833 118.167 265.167 118.167 L 266.500 118.167 266.500 114.788 L 266.500 111.409 267.828 110.088 C 268.559 109.362,269.215 108.825,269.287 108.894 C 269.358 108.964,270.692 111.060,272.251 113.552 L 275.086 118.083 276.793 118.131 C 277.732 118.157,278.500 118.139,278.500 118.090 C 278.500 118.042,278.058 117.308,277.518 116.460 C 275.429 113.176,271.500 106.817,271.500 106.719 C 271.500 106.663,272.813 105.341,274.417 103.782 C 276.021 102.223,277.333 100.884,277.333 100.807 C 277.333 100.730,276.564 100.667,275.624 100.667 L 273.914 100.667 270.333 104.250 C 268.364 106.221,266.696 107.833,266.626 107.833 C 266.557 107.833,266.500 104.683,266.500 100.833 L 266.500 93.833 265.167 93.833 L 263.833 93.833 263.833 106.000 M280.944 93.944 C 280.883 94.006,280.833 94.793,280.833 95.694 L 280.833 97.333 282.250 97.333 L 283.667 97.333 283.667 95.583 L 283.667 93.833 282.361 93.833 C 281.643 93.833,281.006 93.883,280.944 93.944 M288.944 95.944 C 288.883 96.006,288.833 97.090,288.833 98.353 L 288.833 100.651 287.708 100.701 L 286.583 100.750 286.583 101.833 L 286.583 102.917 287.708 102.966 L 288.833 103.015 288.834 109.633 C 288.836 118.555,288.940 118.824,292.417 118.827 C 294.498 118.830,294.500 118.829,294.500 117.519 L 294.500 116.410 293.402 116.413 C 291.575 116.419,291.667 116.795,291.667 109.315 L 291.667 103.000 293.083 103.000 L 294.500 103.000 294.500 101.833 L 294.500 100.667 293.083 100.667 L 291.667 100.667 291.667 98.250 L 291.667 95.833 290.361 95.833 C 289.643 95.833,289.006 95.883,288.944 95.944 M228.167 100.275 C 223.914 100.916,221.726 104.060,223.116 107.533 C 223.680 108.942,225.306 109.819,229.054 110.735 C 232.665 111.618,233.500 112.152,233.500 113.581 C 233.500 117.109,225.936 117.274,225.409 113.757 L 225.295 113.000 223.814 113.000 C 222.124 113.000,222.151 112.966,222.512 114.652 C 223.645 119.933,233.760 120.506,236.020 115.417 C 237.593 111.878,235.632 109.455,230.167 108.183 C 226.637 107.361,225.667 106.736,225.667 105.283 C 225.667 102.214,231.790 101.842,232.693 104.856 L 232.886 105.500 234.371 105.500 C 235.704 105.500,235.848 105.470,235.776 105.208 C 235.732 105.048,235.645 104.620,235.584 104.258 C 235.114 101.489,231.826 99.723,228.167 100.275 M245.000 100.350 C 237.216 101.870,236.573 116.150,244.182 118.518 C 248.381 119.824,252.572 117.632,253.490 113.648 C 253.835 112.152,253.847 112.167,252.292 112.167 L 250.917 112.167 250.634 113.130 C 249.886 115.673,247.791 116.829,245.261 116.094 C 242.180 115.198,240.755 110.174,242.363 105.875 C 243.912 101.735,249.677 101.794,250.576 105.958 L 250.693 106.500 252.115 106.500 L 253.538 106.500 253.420 105.715 C 252.839 101.838,249.212 99.527,245.000 100.350 M256.667 109.417 L 256.667 118.180 258.042 118.132 L 259.417 118.083 259.417 109.417 L 259.417 100.750 258.042 100.702 L 256.667 100.653 256.667 109.417 M281.000 109.417 L 281.000 118.167 282.333 118.167 L 283.667 118.167 283.667 109.417 L 283.667 100.667 282.333 100.667 L 281.000 100.667 281.000 109.417 " stroke="none" fill="" fill-rule="evenodd"></path><path id="path4" d="M200.083 104.902 C 200.726 105.188,201.190 105.711,201.724 106.750 C 201.959 107.208,202.155 107.525,202.159 107.453 C 202.201 106.746,200.482 104.659,199.869 104.673 C 199.699 104.677,199.785 104.769,200.083 104.902 M196.865 105.281 C 196.469 105.420,196.175 105.564,196.211 105.600 C 196.287 105.676,197.833 105.169,197.833 105.068 C 197.833 104.963,197.644 105.005,196.865 105.281 M190.371 107.701 C 189.612 107.983,189.020 108.242,189.056 108.278 C 189.121 108.343,191.845 107.377,191.982 107.240 C 192.141 107.081,191.692 107.209,190.371 107.701 M184.917 109.756 C 184.500 109.957,184.486 109.980,184.833 109.895 C 185.306 109.779,185.836 109.509,185.583 109.513 C 185.492 109.514,185.192 109.623,184.917 109.756 M183.408 111.517 C 182.989 112.352,182.673 113.061,182.705 113.094 C 182.738 113.127,183.117 112.444,183.548 111.577 C 183.979 110.710,184.295 110.000,184.251 110.000 C 184.206 110.000,183.827 110.683,183.408 111.517 M196.167 111.065 C 196.167 111.101,196.424 111.160,196.738 111.197 C 197.053 111.234,197.273 111.204,197.228 111.132 C 197.148 111.001,196.167 110.940,196.167 111.065 M195.324 111.792 L 194.750 112.417 195.375 111.842 C 195.719 111.526,196.000 111.245,196.000 111.217 C 196.000 111.090,195.859 111.210,195.324 111.792 M202.885 112.083 C 202.886 112.633,202.917 112.838,202.954 112.539 C 202.991 112.239,202.990 111.789,202.952 111.539 C 202.914 111.288,202.884 111.533,202.885 112.083 M198.183 112.669 C 198.357 113.128,198.511 113.747,198.525 114.043 C 198.549 114.555,198.554 114.559,198.620 114.120 C 198.692 113.644,198.251 112.072,198.003 111.919 C 197.927 111.872,198.008 112.209,198.183 112.669 M194.126 113.375 C 193.756 113.940,192.970 115.526,193.030 115.585 C 193.060 115.614,193.397 115.044,193.780 114.319 C 194.468 113.018,194.606 112.643,194.126 113.375 M181.825 114.684 C 181.451 115.427,181.173 116.061,181.205 116.094 C 181.238 116.127,181.580 115.519,181.965 114.744 C 182.349 113.968,182.628 113.333,182.584 113.333 C 182.540 113.333,182.198 113.941,181.825 114.684 M202.890 114.917 C 202.891 115.650,202.920 115.929,202.956 115.537 C 202.991 115.145,202.990 114.545,202.954 114.204 C 202.919 113.863,202.890 114.183,202.890 114.917 M198.720 115.667 C 198.720 116.263,198.750 116.506,198.787 116.208 C 198.824 115.910,198.824 115.423,198.787 115.125 C 198.750 114.827,198.720 115.071,198.720 115.667 M180.780 116.924 C 180.388 117.745,180.443 117.885,180.853 117.109 C 181.039 116.757,181.161 116.439,181.125 116.403 C 181.089 116.367,180.934 116.602,180.780 116.924 M198.550 117.833 C 198.550 118.337,198.581 118.544,198.619 118.292 C 198.658 118.040,198.658 117.627,198.619 117.375 C 198.581 117.123,198.550 117.329,198.550 117.833 M198.372 119.333 C 198.372 119.654,198.406 119.785,198.448 119.625 C 198.490 119.465,198.490 119.202,198.448 119.042 C 198.406 118.881,198.372 119.013,198.372 119.333 M178.856 121.189 C 178.658 121.664,178.524 122.080,178.558 122.113 C 178.591 122.147,178.780 121.786,178.978 121.311 C 179.175 120.836,179.309 120.420,179.275 120.387 C 179.242 120.353,179.053 120.714,178.856 121.189 M201.362 125.196 C 201.159 126.031,201.022 126.744,201.059 126.781 C 201.096 126.818,201.294 126.166,201.500 125.333 C 201.706 124.500,201.842 123.787,201.803 123.748 C 201.765 123.709,201.566 124.360,201.362 125.196 M188.851 126.184 C 188.642 126.831,188.502 127.390,188.538 127.427 C 188.574 127.463,188.774 126.963,188.982 126.316 C 189.191 125.669,189.332 125.110,189.296 125.073 C 189.259 125.037,189.059 125.537,188.851 126.184 M196.367 126.950 C 196.120 127.754,196.239 127.873,196.500 127.083 C 196.610 126.750,196.667 126.445,196.628 126.406 C 196.588 126.366,196.471 126.611,196.367 126.950 M176.019 128.185 C 175.916 128.480,175.861 128.750,175.897 128.786 C 175.932 128.821,176.045 128.609,176.148 128.315 C 176.251 128.020,176.306 127.750,176.270 127.714 C 176.234 127.679,176.121 127.891,176.019 128.185 M195.852 128.352 C 195.749 128.646,195.694 128.917,195.730 128.952 C 195.766 128.988,195.879 128.776,195.981 128.481 C 196.084 128.187,196.139 127.917,196.103 127.881 C 196.068 127.845,195.955 128.057,195.852 128.352 M199.022 132.189 C 198.825 132.664,198.691 133.080,198.725 133.113 C 198.758 133.147,198.947 132.786,199.144 132.311 C 199.342 131.836,199.476 131.420,199.442 131.387 C 199.409 131.353,199.220 131.714,199.022 132.189 M193.366 134.092 C 193.073 134.686,192.837 135.228,192.842 135.295 C 192.846 135.362,193.113 134.903,193.436 134.275 C 193.758 133.647,193.994 133.105,193.961 133.072 C 193.927 133.038,193.660 133.497,193.366 134.092 M173.684 134.698 C 173.399 135.552,173.172 136.326,173.179 136.417 C 173.186 136.509,173.448 135.839,173.761 134.929 C 174.074 134.019,174.301 133.245,174.265 133.210 C 174.230 133.175,173.968 133.844,173.684 134.698 M198.027 134.424 C 197.748 135.037,197.801 135.167,198.103 134.610 C 198.244 134.350,198.328 134.106,198.290 134.068 C 198.252 134.030,198.134 134.190,198.027 134.424 M186.250 135.167 C 186.187 135.455,186.170 135.725,186.212 135.768 C 186.255 135.810,186.337 135.605,186.396 135.313 C 186.535 134.618,186.400 134.483,186.250 135.167 M273.042 136.455 C 273.385 136.491,273.948 136.491,274.292 136.455 C 274.635 136.419,274.354 136.389,273.667 136.389 C 272.979 136.389,272.698 136.419,273.042 136.455 M293.958 136.762 C 293.335 137.100,293.373 137.241,294.000 136.917 C 294.275 136.774,294.500 136.623,294.500 136.579 C 294.500 136.472,294.482 136.478,293.958 136.762 M227.542 136.782 C 227.702 136.823,227.965 136.823,228.125 136.782 C 228.285 136.740,228.154 136.705,227.833 136.705 C 227.512 136.705,227.381 136.740,227.542 136.782 M336.625 136.787 C 336.923 136.824,337.410 136.824,337.708 136.787 C 338.006 136.750,337.762 136.720,337.167 136.720 C 336.571 136.720,336.327 136.750,336.625 136.787 M319.732 137.228 C 320.088 137.443,320.557 137.912,320.772 138.268 C 320.988 138.625,321.165 138.851,321.166 138.770 C 321.169 138.226,319.774 136.831,319.230 136.834 C 319.149 136.835,319.375 137.012,319.732 137.228 M191.583 137.500 C 191.441 137.775,191.362 138.000,191.408 138.000 C 191.454 138.000,191.608 137.775,191.750 137.500 C 191.892 137.225,191.971 137.000,191.925 137.000 C 191.879 137.000,191.726 137.225,191.583 137.500 M224.750 137.245 C 223.855 137.540,224.207 137.552,225.250 137.262 C 225.708 137.134,225.933 137.029,225.750 137.028 C 225.567 137.027,225.117 137.124,224.750 137.245 M233.917 137.167 C 234.100 137.245,234.362 137.310,234.500 137.310 C 234.658 137.310,234.627 137.257,234.417 137.167 C 234.233 137.088,233.971 137.023,233.833 137.023 C 233.676 137.023,233.707 137.076,233.917 137.167 M313.125 137.345 C 312.781 137.526,312.500 137.712,312.500 137.757 C 312.500 137.832,313.816 137.216,313.986 137.063 C 314.178 136.889,313.677 137.053,313.125 137.345 M278.014 137.230 C 278.184 137.384,279.500 137.998,279.500 137.923 C 279.500 137.829,278.242 137.167,278.062 137.167 C 277.997 137.167,277.976 137.195,278.014 137.230 M292.458 137.594 C 292.023 137.821,291.667 138.044,291.667 138.089 C 291.667 138.135,292.042 137.982,292.500 137.750 C 292.958 137.518,293.333 137.291,293.333 137.247 C 293.333 137.137,293.348 137.131,292.458 137.594 M196.167 138.000 C 195.980 138.367,195.864 138.667,195.910 138.667 C 195.956 138.667,196.146 138.367,196.333 138.000 C 196.520 137.633,196.636 137.333,196.590 137.333 C 196.544 137.333,196.354 137.633,196.167 138.000 M235.347 137.563 C 235.518 137.717,236.833 138.331,236.833 138.257 C 236.833 138.162,235.576 137.500,235.396 137.500 C 235.331 137.500,235.309 137.528,235.347 137.563 M267.083 137.756 C 266.667 137.957,266.653 137.980,267.000 137.895 C 267.472 137.779,268.003 137.509,267.750 137.513 C 267.658 137.514,267.358 137.623,267.083 137.756 M190.917 138.667 C 190.774 138.942,190.696 139.167,190.741 139.167 C 190.787 139.167,190.941 138.942,191.083 138.667 C 191.226 138.392,191.304 138.167,191.259 138.167 C 191.213 138.167,191.059 138.392,190.917 138.667 M310.828 139.125 L 309.917 140.083 310.875 139.172 C 311.765 138.326,311.910 138.167,311.786 138.167 C 311.760 138.167,311.329 138.598,310.828 139.125 M333.730 138.875 C 333.576 139.173,333.341 139.604,333.208 139.833 C 332.975 140.233,332.976 140.236,333.245 139.917 C 333.574 139.526,334.211 138.333,334.091 138.333 C 334.046 138.333,333.883 138.577,333.730 138.875 M281.023 139.250 C 281.331 139.617,281.757 140.142,281.968 140.417 C 282.179 140.692,282.276 140.759,282.183 140.565 C 282.090 140.372,281.664 139.847,281.238 139.399 C 280.726 138.862,280.653 138.811,281.023 139.250 M288.542 139.763 C 287.785 140.179,287.167 140.558,287.167 140.605 C 287.167 140.698,289.653 139.372,289.908 139.142 C 290.206 138.875,289.916 139.006,288.542 139.763 M296.517 140.267 C 296.314 140.965,296.178 141.567,296.214 141.603 C 296.251 141.640,296.447 141.098,296.650 140.400 C 296.853 139.702,296.989 139.100,296.952 139.063 C 296.916 139.027,296.720 139.568,296.517 140.267 M238.333 139.385 C 238.333 139.414,238.577 139.658,238.875 139.927 L 239.417 140.417 238.927 139.875 C 238.471 139.370,238.333 139.257,238.333 139.385 M262.958 139.762 C 262.335 140.100,262.373 140.241,263.000 139.917 C 263.275 139.774,263.500 139.623,263.500 139.579 C 263.500 139.472,263.482 139.478,262.958 139.762 M321.367 140.852 C 321.348 141.549,321.298 142.487,321.255 142.935 L 321.176 143.750 321.345 142.941 C 321.437 142.497,321.488 141.559,321.457 140.858 L 321.400 139.583 321.367 140.852 M261.708 140.519 C 261.140 140.883,260.956 141.127,261.458 140.851 C 261.841 140.641,262.440 140.178,262.333 140.175 C 262.287 140.173,262.006 140.328,261.708 140.519 M171.595 141.095 C 171.534 141.339,171.516 141.571,171.555 141.611 C 171.594 141.650,171.677 141.482,171.738 141.238 C 171.799 140.994,171.817 140.762,171.778 140.723 C 171.739 140.683,171.657 140.851,171.595 141.095 M226.375 141.119 C 226.627 141.158,227.040 141.158,227.292 141.119 C 227.544 141.081,227.338 141.050,226.833 141.050 C 226.329 141.050,226.123 141.081,226.375 141.119 M188.606 142.333 C 188.180 142.975,187.866 143.500,187.909 143.500 C 187.952 143.500,188.277 143.069,188.631 142.542 C 189.416 141.374,189.539 141.167,189.451 141.167 C 189.413 141.167,189.033 141.692,188.606 142.333 M194.064 141.542 C 193.490 142.515,193.452 142.598,193.745 142.250 C 194.083 141.847,194.375 141.333,194.266 141.333 C 194.222 141.333,194.131 141.427,194.064 141.542 M284.292 142.094 C 283.856 142.321,283.500 142.544,283.500 142.589 C 283.500 142.635,283.875 142.482,284.333 142.250 C 284.792 142.018,285.167 141.791,285.167 141.747 C 285.167 141.637,285.182 141.631,284.292 142.094 M308.417 142.500 C 308.184 142.958,308.032 143.333,308.078 143.333 C 308.124 143.333,308.351 142.958,308.583 142.500 C 308.816 142.042,308.968 141.667,308.922 141.667 C 308.876 141.667,308.649 142.042,308.417 142.500 M171.262 142.262 C 171.201 142.506,171.183 142.738,171.222 142.777 C 171.261 142.817,171.343 142.649,171.405 142.405 C 171.466 142.161,171.484 141.929,171.445 141.889 C 171.406 141.850,171.323 142.018,171.262 142.262 M215.573 142.375 L 215.083 142.917 215.625 142.427 C 216.130 141.971,216.243 141.833,216.115 141.833 C 216.086 141.833,215.842 142.077,215.573 142.375 M258.941 142.424 C 258.515 142.749,258.167 143.056,258.167 143.105 C 258.167 143.181,259.220 142.422,259.742 141.970 C 260.186 141.586,259.615 141.910,258.941 142.424 M331.154 142.792 C 330.759 143.319,330.547 143.660,330.684 143.549 C 330.964 143.323,332.061 141.833,331.947 141.833 C 331.907 141.833,331.550 142.265,331.154 142.792 M222.631 142.981 C 222.055 143.520,221.335 144.326,221.031 144.772 C 220.694 145.267,220.657 145.356,220.937 145.000 C 221.189 144.679,221.945 143.873,222.618 143.208 C 224.088 141.756,224.096 141.609,222.631 142.981 M269.390 142.813 C 268.946 143.168,268.321 143.748,268.000 144.101 C 267.556 144.588,267.636 144.543,268.333 143.909 C 268.837 143.451,269.512 142.872,269.833 142.623 C 270.154 142.374,270.367 142.170,270.307 142.169 C 270.246 142.167,269.834 142.458,269.390 142.813 M184.259 143.426 C 184.197 143.760,184.179 144.067,184.219 144.108 C 184.260 144.149,184.345 143.909,184.407 143.574 C 184.470 143.240,184.488 142.933,184.447 142.892 C 184.407 142.851,184.322 143.091,184.259 143.426 M213.829 143.958 L 212.750 145.083 213.875 144.005 C 214.920 143.003,215.076 142.833,214.954 142.833 C 214.928 142.833,214.422 143.340,213.829 143.958 M170.929 143.429 C 170.867 143.673,170.849 143.905,170.889 143.944 C 170.928 143.983,171.010 143.816,171.071 143.571 C 171.133 143.327,171.151 143.095,171.111 143.056 C 171.072 143.017,170.990 143.184,170.929 143.429 M329.740 144.542 C 328.542 145.824,328.103 146.333,328.198 146.333 C 328.250 146.333,328.796 145.771,329.411 145.083 C 330.609 143.745,330.838 143.367,329.740 144.542 M254.914 146.042 L 253.083 147.917 254.958 146.086 C 256.700 144.386,256.909 144.167,256.789 144.167 C 256.764 144.167,255.921 145.010,254.914 146.042 M183.844 145.344 C 183.734 145.906,183.676 146.398,183.716 146.438 C 183.755 146.478,183.878 146.051,183.989 145.489 C 184.099 144.927,184.157 144.435,184.118 144.395 C 184.078 144.356,183.955 144.783,183.844 145.344 M186.187 145.708 C 185.620 146.465,185.402 146.811,185.703 146.478 C 186.300 145.818,187.395 144.333,187.286 144.333 C 187.249 144.333,186.754 144.952,186.187 145.708 M230.539 145.000 C 230.539 145.321,230.573 145.452,230.615 145.292 C 230.657 145.131,230.657 144.869,230.615 144.708 C 230.573 144.548,230.539 144.679,230.539 145.000 M241.228 146.167 C 241.228 147.129,241.256 147.523,241.290 147.042 C 241.323 146.560,241.323 145.773,241.290 145.292 C 241.256 144.810,241.228 145.204,241.228 146.167 M266.711 145.625 C 266.012 146.529,265.466 147.333,265.552 147.333 C 265.592 147.333,266.009 146.808,266.477 146.167 C 267.372 144.940,267.538 144.556,266.711 145.625 M212.158 145.792 L 211.583 146.417 212.208 145.842 C 212.790 145.308,212.910 145.167,212.783 145.167 C 212.755 145.167,212.474 145.448,212.158 145.792 M191.167 145.833 C 190.971 146.108,190.848 146.333,190.894 146.333 C 190.940 146.333,191.138 146.108,191.333 145.833 C 191.529 145.558,191.652 145.333,191.606 145.333 C 191.560 145.333,191.362 145.558,191.167 145.833 M279.214 146.583 C 279.216 147.042,279.248 147.209,279.286 146.956 C 279.325 146.703,279.324 146.328,279.284 146.123 C 279.244 145.918,279.213 146.125,279.214 146.583 M211.233 146.875 C 210.503 147.717,210.286 148.000,210.371 148.000 C 210.420 148.000,210.736 147.662,211.074 147.250 C 211.700 146.486,211.824 146.193,211.233 146.875 M326.750 147.435 L 326.083 148.032 326.792 147.502 C 327.401 147.046,327.621 146.826,327.458 146.836 C 327.435 146.837,327.117 147.107,326.750 147.435 M230.542 147.750 C 230.544 148.117,230.578 148.247,230.618 148.040 C 230.658 147.832,230.656 147.532,230.615 147.373 C 230.573 147.214,230.540 147.383,230.542 147.750 M219.075 147.849 C 218.929 148.132,218.838 148.394,218.875 148.430 C 218.911 148.466,219.065 148.234,219.217 147.915 C 219.560 147.196,219.441 147.141,219.075 147.849 M188.607 149.250 C 187.997 150.029,187.532 150.667,187.575 150.667 C 187.618 150.667,188.081 150.123,188.604 149.458 C 189.901 147.810,189.884 147.833,189.796 147.833 C 189.752 147.833,189.218 148.471,188.607 149.250 M279.221 148.917 C 279.222 149.558,279.252 149.800,279.288 149.455 C 279.324 149.109,279.324 148.584,279.287 148.288 C 279.250 147.992,279.221 148.275,279.221 148.917 M293.927 148.844 C 293.770 149.404,293.672 149.894,293.710 149.932 C 293.748 149.970,293.906 149.541,294.063 148.979 C 294.219 148.417,294.317 147.928,294.280 147.891 C 294.243 147.854,294.084 148.283,293.927 148.844 M183.700 148.738 C 183.424 149.052,183.153 149.265,183.099 149.210 C 183.045 149.156,183.000 149.199,183.000 149.306 C 183.000 149.650,183.237 149.509,183.801 148.830 C 184.475 148.019,184.395 147.946,183.700 148.738 M306.231 150.417 C 306.251 151.436,306.347 152.213,306.478 152.417 L 306.692 152.750 306.573 152.417 C 306.508 152.233,306.396 151.333,306.326 150.417 L 306.198 148.750 306.231 150.417 M251.650 149.708 C 250.809 150.801,250.787 150.833,250.876 150.833 C 250.922 150.833,251.271 150.421,251.652 149.917 C 252.033 149.412,252.311 149.000,252.269 149.000 C 252.228 149.000,251.949 149.319,251.650 149.708 M263.833 150.167 C 263.556 150.717,263.366 151.167,263.412 151.167 C 263.458 151.167,263.722 150.717,264.000 150.167 C 264.278 149.617,264.467 149.167,264.421 149.167 C 264.376 149.167,264.111 149.617,263.833 150.167 M208.773 150.208 C 208.160 151.173,207.724 151.976,207.904 151.809 C 208.092 151.635,209.488 149.333,209.405 149.333 C 209.363 149.333,209.079 149.727,208.773 150.208 M322.167 150.008 C 321.754 150.177,321.529 150.317,321.667 150.320 C 321.804 150.322,322.217 150.183,322.583 150.009 C 323.435 149.606,323.150 149.606,322.167 150.008 M279.039 151.000 C 279.039 151.321,279.073 151.452,279.115 151.292 C 279.157 151.131,279.157 150.869,279.115 150.708 C 279.073 150.548,279.039 150.679,279.039 151.000 M168.667 152.583 C 168.458 153.643,168.321 154.543,168.361 154.583 C 168.401 154.623,168.603 153.787,168.810 152.726 C 169.016 151.665,169.154 150.765,169.115 150.727 C 169.077 150.688,168.875 151.524,168.667 152.583 M185.895 152.618 C 185.449 153.142,185.170 153.516,185.277 153.451 C 185.509 153.308,186.898 151.667,186.786 151.667 C 186.743 151.667,186.342 152.095,185.895 152.618 M239.244 152.375 C 238.987 152.765,238.883 152.995,239.013 152.888 C 239.264 152.681,239.902 151.667,239.782 151.667 C 239.743 151.667,239.501 151.985,239.244 152.375 M278.626 153.188 C 278.466 154.047,278.295 154.938,278.246 155.167 C 278.169 155.529,278.177 155.539,278.311 155.242 C 278.533 154.749,279.033 152.208,278.970 151.893 C 278.941 151.747,278.786 152.329,278.626 153.188 M228.917 152.833 C 228.774 153.108,228.696 153.333,228.741 153.333 C 228.787 153.333,228.941 153.108,229.083 152.833 C 229.226 152.558,229.304 152.333,229.259 152.333 C 229.213 152.333,229.059 152.558,228.917 152.833 M206.174 155.091 C 205.882 155.792,205.672 156.394,205.706 156.428 C 205.741 156.463,206.006 155.916,206.295 155.212 C 206.585 154.509,206.796 153.907,206.763 153.875 C 206.731 153.842,206.466 154.390,206.174 155.091 M248.241 155.017 C 247.914 155.668,247.672 156.228,247.706 156.261 C 247.739 156.294,248.043 155.762,248.382 155.077 C 248.720 154.393,248.961 153.833,248.917 153.833 C 248.873 153.833,248.569 154.366,248.241 155.017 M183.820 155.042 C 183.327 155.615,183.055 155.978,183.217 155.850 C 183.556 155.581,184.901 154.000,184.791 154.000 C 184.750 154.000,184.313 154.469,183.820 155.042 M308.000 154.726 C 308.412 155.166,308.900 155.605,309.083 155.702 C 309.267 155.799,309.379 155.845,309.333 155.804 C 309.287 155.764,308.800 155.325,308.250 154.829 L 307.250 153.927 308.000 154.726 M261.341 155.507 C 261.051 156.257,260.843 156.899,260.878 156.934 C 260.913 156.969,261.177 156.382,261.464 155.630 C 261.751 154.879,261.959 154.237,261.926 154.204 C 261.893 154.171,261.630 154.757,261.341 155.507 M324.121 154.796 C 323.883 155.296,323.878 155.352,324.092 155.083 C 324.484 154.592,324.697 154.166,324.548 154.171 C 324.476 154.173,324.284 154.454,324.121 154.796 M236.750 155.272 L 235.750 156.202 236.792 155.334 C 237.697 154.580,237.957 154.321,237.792 154.337 C 237.769 154.340,237.300 154.760,236.750 155.272 M321.958 155.213 C 321.248 155.493,320.696 155.751,320.731 155.787 C 320.807 155.863,323.500 154.843,323.500 154.738 C 323.500 154.622,323.314 154.679,321.958 155.213 M226.833 155.583 C 226.428 155.996,226.135 156.333,226.181 156.333 C 226.226 156.333,226.595 155.996,227.000 155.583 C 227.405 155.171,227.699 154.833,227.653 154.833 C 227.607 154.833,227.238 155.171,226.833 155.583 M216.872 155.500 C 216.872 155.821,216.906 155.952,216.948 155.792 C 216.990 155.631,216.990 155.369,216.948 155.208 C 216.906 155.048,216.872 155.179,216.872 155.500 M291.929 155.429 C 291.867 155.673,291.849 155.905,291.889 155.944 C 291.928 155.983,292.010 155.816,292.071 155.571 C 292.133 155.327,292.151 155.095,292.111 155.056 C 292.072 155.017,291.990 155.184,291.929 155.429 M216.714 156.917 C 216.716 157.375,216.748 157.543,216.786 157.289 C 216.825 157.036,216.824 156.661,216.784 156.456 C 216.744 156.251,216.713 156.458,216.714 156.917 M291.451 157.141 C 291.294 157.702,291.172 158.257,291.179 158.372 C 291.186 158.488,291.336 158.096,291.512 157.500 C 291.688 156.904,291.810 156.350,291.783 156.268 C 291.756 156.187,291.607 156.579,291.451 157.141 M225.157 156.970 C 224.832 157.216,224.382 157.551,224.157 157.716 C 223.766 158.003,223.771 158.003,224.304 157.716 C 224.831 157.432,226.010 156.508,225.833 156.518 C 225.787 156.521,225.483 156.724,225.157 156.970 M310.709 156.585 C 310.778 156.661,310.714 156.907,310.567 157.132 C 310.419 157.357,310.381 157.490,310.482 157.428 C 310.831 157.212,311.017 156.696,310.792 156.567 C 310.677 156.501,310.640 156.509,310.709 156.585 M181.918 157.165 C 181.656 157.439,181.473 157.690,181.512 157.722 C 181.551 157.755,181.797 157.531,182.058 157.224 C 182.648 156.532,182.560 156.495,181.918 157.165 M233.953 157.403 C 232.969 158.084,232.735 158.323,233.461 157.905 C 234.021 157.583,234.982 156.843,234.833 156.849 C 234.787 156.850,234.391 157.100,233.953 157.403 M216.534 159.375 C 216.504 160.825,216.531 161.000,216.792 160.997 C 216.991 160.996,217.020 160.955,216.882 160.867 C 216.757 160.787,216.660 160.174,216.625 159.245 L 216.569 157.750 216.534 159.375 M181.388 159.083 C 181.389 159.725,181.419 159.967,181.455 159.621 C 181.491 159.275,181.490 158.750,181.454 158.455 C 181.417 158.159,181.387 158.442,181.388 159.083 M308.654 159.792 C 308.259 160.319,308.047 160.660,308.184 160.549 C 308.464 160.323,309.561 158.833,309.447 158.833 C 309.407 158.833,309.050 159.265,308.654 159.792 M229.667 159.917 C 228.887 160.320,228.308 160.654,228.379 160.658 C 228.556 160.670,231.167 159.349,231.167 159.248 C 231.167 159.135,231.237 159.104,229.667 159.917 M220.250 159.679 C 219.883 159.855,219.771 159.953,220.000 159.896 C 220.472 159.778,221.338 159.344,221.083 159.352 C 220.992 159.355,220.617 159.502,220.250 159.679 M313.599 160.458 C 313.260 160.985,313.158 161.212,313.371 160.961 C 313.792 160.466,314.395 159.500,314.283 159.500 C 314.245 159.500,313.937 159.931,313.599 160.458 M320.667 160.833 C 320.298 161.567,320.034 162.167,320.080 162.167 C 320.125 162.167,320.465 161.567,320.833 160.833 C 321.202 160.100,321.466 159.500,321.420 159.500 C 321.375 159.500,321.035 160.100,320.667 160.833 M246.015 160.348 C 245.902 160.725,245.841 161.063,245.878 161.101 C 245.916 161.138,246.039 160.861,246.152 160.485 C 246.264 160.109,246.326 159.770,246.288 159.733 C 246.251 159.695,246.128 159.972,246.015 160.348 M181.224 161.583 C 181.224 162.317,181.254 162.596,181.289 162.204 C 181.324 161.812,181.324 161.212,181.288 160.871 C 181.252 160.529,181.223 160.850,181.224 161.583 M275.944 161.528 C 275.700 162.093,275.527 162.583,275.560 162.616 C 275.593 162.648,275.820 162.213,276.065 161.648 C 276.310 161.083,276.483 160.594,276.449 160.560 C 276.416 160.527,276.189 160.962,275.944 161.528 M306.820 162.125 C 305.929 163.123,305.592 163.549,305.777 163.443 C 305.883 163.382,306.284 162.958,306.667 162.499 C 307.403 161.620,307.515 161.346,306.820 162.125 M167.205 162.500 C 167.205 162.821,167.240 162.952,167.282 162.792 C 167.323 162.631,167.323 162.369,167.282 162.208 C 167.240 162.048,167.205 162.179,167.205 162.500 M224.417 162.256 C 224.000 162.457,223.986 162.480,224.333 162.395 C 224.806 162.279,225.336 162.009,225.083 162.013 C 224.992 162.014,224.692 162.123,224.417 162.256 M311.654 163.125 C 311.259 163.652,311.047 163.993,311.184 163.883 C 311.464 163.656,312.561 162.167,312.447 162.167 C 312.407 162.167,312.050 162.598,311.654 163.125 M204.039 163.000 C 204.039 163.321,204.073 163.452,204.115 163.292 C 204.157 163.131,204.157 162.869,204.115 162.708 C 204.073 162.548,204.039 162.679,204.039 163.000 M223.083 162.756 C 222.667 162.957,222.653 162.980,223.000 162.895 C 223.472 162.779,224.003 162.509,223.750 162.513 C 223.658 162.514,223.358 162.623,223.083 162.756 M259.010 164.284 C 258.902 165.182,258.840 166.667,258.872 167.583 L 258.930 169.250 258.965 167.402 C 258.984 166.385,259.083 164.937,259.184 164.183 C 259.286 163.430,259.332 162.777,259.287 162.732 C 259.243 162.687,259.118 163.385,259.010 164.284 M319.527 163.090 C 319.248 163.703,319.301 163.834,319.603 163.277 C 319.744 163.017,319.828 162.773,319.790 162.735 C 319.752 162.696,319.634 162.857,319.527 163.090 M181.062 165.417 C 181.063 166.425,181.090 166.816,181.123 166.286 C 181.157 165.755,181.156 164.930,181.123 164.452 C 181.089 163.974,181.062 164.408,181.062 165.417 M302.748 166.542 L 299.917 169.417 302.792 166.585 C 304.373 165.028,305.667 163.734,305.667 163.710 C 305.667 163.591,305.379 163.871,302.748 166.542 M203.861 164.443 C 203.834 165.110,203.741 165.222,201.375 167.427 C 198.360 170.236,197.539 171.055,199.083 169.713 C 202.732 166.542,204.036 165.126,203.961 164.417 L 203.889 163.750 203.861 164.443 M167.053 165.000 C 167.053 165.596,167.084 165.840,167.121 165.542 C 167.158 165.244,167.158 164.756,167.121 164.458 C 167.084 164.160,167.053 164.404,167.053 165.000 M217.250 164.667 C 217.040 164.757,217.009 164.810,217.167 164.810 C 217.304 164.810,217.567 164.745,217.750 164.667 C 217.960 164.576,217.991 164.523,217.833 164.523 C 217.696 164.523,217.433 164.588,217.250 164.667 M274.066 165.375 C 273.914 165.673,273.600 166.254,273.368 166.667 C 273.135 167.079,273.026 167.342,273.124 167.250 C 273.365 167.025,274.555 164.833,274.436 164.833 C 274.384 164.833,274.218 165.077,274.066 165.375 M243.413 166.875 L 241.917 168.417 243.458 166.920 C 244.306 166.097,245.000 165.403,245.000 165.378 C 245.000 165.257,244.803 165.443,243.413 166.875 M307.250 168.284 C 306.150 169.445,305.367 170.325,305.509 170.239 C 305.731 170.106,306.834 168.958,308.901 166.708 C 309.175 166.410,309.365 166.168,309.324 166.169 C 309.283 166.171,308.350 167.122,307.250 168.284 M289.212 167.333 C 289.212 167.746,289.245 167.915,289.284 167.708 C 289.324 167.502,289.324 167.165,289.284 166.958 C 289.245 166.752,289.212 166.921,289.212 167.333 M181.209 168.250 C 181.211 168.617,181.245 168.747,181.285 168.540 C 181.324 168.332,181.323 168.032,181.281 167.873 C 181.239 167.714,181.207 167.883,181.209 168.250 M289.057 169.417 C 289.058 170.150,289.087 170.429,289.122 170.037 C 289.157 169.645,289.157 169.045,289.121 168.704 C 289.085 168.363,289.057 168.683,289.057 169.417 M218.171 168.713 C 218.163 168.945,219.122 170.742,219.440 171.092 C 219.610 171.279,219.684 171.334,219.603 171.215 C 219.523 171.095,219.168 170.454,218.816 169.790 C 218.464 169.126,218.173 168.642,218.171 168.713 M240.667 169.417 C 240.262 169.829,239.968 170.167,240.014 170.167 C 240.060 170.167,240.428 169.829,240.833 169.417 C 241.238 169.004,241.532 168.667,241.486 168.667 C 241.440 168.667,241.072 169.004,240.667 169.417 M271.333 169.667 C 271.043 170.033,270.843 170.333,270.889 170.333 C 270.934 170.333,271.210 170.033,271.500 169.667 C 271.790 169.300,271.991 169.000,271.945 169.000 C 271.899 169.000,271.624 169.300,271.333 169.667 M167.045 170.000 C 167.045 170.412,167.078 170.581,167.118 170.375 C 167.157 170.169,167.157 169.831,167.118 169.625 C 167.078 169.419,167.045 169.587,167.045 170.000 M259.028 169.583 C 259.026 169.767,259.088 170.067,259.167 170.250 C 259.349 170.675,259.349 170.237,259.167 169.667 C 259.059 169.332,259.032 169.315,259.028 169.583 M298.662 170.458 L 297.583 171.583 298.708 170.505 C 299.753 169.503,299.910 169.333,299.787 169.333 C 299.761 169.333,299.255 169.840,298.662 170.458 M275.847 169.875 C 275.634 170.216,275.638 170.230,275.884 170.026 C 276.131 169.822,276.160 169.963,276.209 171.609 L 276.263 173.417 276.298 171.458 C 276.334 169.464,276.261 169.209,275.847 169.875 M239.240 170.708 L 238.750 171.250 239.292 170.760 C 239.797 170.304,239.910 170.167,239.781 170.167 C 239.752 170.167,239.509 170.410,239.240 170.708 M269.500 171.705 C 268.813 172.358,268.550 172.661,268.917 172.377 C 269.564 171.877,270.978 170.492,270.825 170.508 C 270.784 170.512,270.188 171.051,269.500 171.705 M289.178 171.100 C 289.166 171.455,289.497 172.559,289.588 172.467 C 289.615 172.439,289.536 172.042,289.413 171.583 C 289.290 171.125,289.184 170.908,289.178 171.100 M237.721 171.886 C 236.556 172.828,236.416 173.009,237.374 172.335 C 238.068 171.846,238.841 171.146,238.651 171.178 C 238.614 171.184,238.195 171.503,237.721 171.886 M203.160 172.125 L 202.417 172.917 203.247 172.167 C 203.704 171.754,204.110 171.398,204.150 171.375 C 204.190 171.352,204.150 171.333,204.062 171.333 C 203.975 171.333,203.568 171.690,203.160 172.125 M303.078 172.542 L 302.083 173.583 303.125 172.589 C 304.093 171.664,304.243 171.500,304.120 171.500 C 304.094 171.500,303.625 171.969,303.078 172.542 M195.917 172.275 C 195.415 172.723,195.377 172.786,195.765 172.526 C 196.226 172.218,196.805 171.657,196.645 171.673 C 196.611 171.676,196.283 171.947,195.917 172.275 M220.667 172.583 C 221.165 173.088,221.609 173.500,221.655 173.500 C 221.701 173.500,221.331 173.088,220.833 172.583 C 220.335 172.079,219.891 171.667,219.845 171.667 C 219.799 171.667,220.169 172.079,220.667 172.583 M273.821 172.625 C 273.425 173.152,273.214 173.493,273.351 173.383 C 273.631 173.156,274.728 171.667,274.614 171.667 C 274.573 171.667,274.216 172.098,273.821 172.625 M296.830 172.047 C 296.600 172.250,296.187 172.590,295.914 172.801 C 295.640 173.012,295.567 173.112,295.750 173.024 C 296.097 172.856,297.479 171.682,297.333 171.679 C 297.287 171.678,297.061 171.844,296.830 172.047 M243.662 172.958 L 242.583 174.083 243.708 173.005 C 244.753 172.003,244.910 171.833,244.787 171.833 C 244.761 171.833,244.255 172.340,243.662 172.958 M201.575 173.542 L 200.917 174.250 201.625 173.591 C 202.284 172.978,202.410 172.833,202.284 172.833 C 202.257 172.833,201.938 173.152,201.575 173.542 M276.381 174.417 C 276.382 174.875,276.415 175.043,276.453 174.789 C 276.491 174.536,276.490 174.161,276.451 173.956 C 276.411 173.751,276.380 173.958,276.381 174.417 M300.744 174.708 L 299.917 175.583 300.792 174.756 C 301.605 173.988,301.743 173.833,301.619 173.833 C 301.592 173.833,301.199 174.227,300.744 174.708 M192.958 174.262 C 192.335 174.600,192.373 174.741,193.000 174.417 C 193.275 174.274,193.500 174.123,193.500 174.079 C 193.500 173.972,193.482 173.978,192.958 174.262 M233.417 174.512 C 233.050 174.688,232.938 174.786,233.167 174.729 C 233.639 174.611,234.505 174.177,234.250 174.186 C 234.158 174.189,233.783 174.336,233.417 174.512 M263.628 174.287 C 263.928 174.325,264.378 174.324,264.628 174.286 C 264.878 174.248,264.633 174.217,264.083 174.218 C 263.533 174.219,263.328 174.250,263.628 174.287 M183.667 174.379 C 183.667 174.411,183.910 174.616,184.208 174.834 C 184.544 175.079,184.660 175.119,184.514 174.939 C 184.292 174.666,183.667 174.253,183.667 174.379 M241.491 174.958 L 240.917 175.583 241.542 175.009 C 241.885 174.693,242.167 174.412,242.167 174.384 C 242.167 174.257,242.026 174.377,241.491 174.958 M223.833 174.750 C 224.063 174.881,224.362 174.988,224.500 174.988 C 224.637 174.987,224.498 174.877,224.189 174.743 C 223.479 174.435,223.289 174.439,223.833 174.750 M271.987 174.958 C 271.004 176.060,270.781 176.333,270.867 176.333 C 270.918 176.333,271.312 175.921,271.743 175.417 C 272.540 174.483,272.731 174.124,271.987 174.958 M198.917 175.770 L 198.083 176.534 198.958 175.835 C 199.716 175.229,199.956 174.990,199.792 175.003 C 199.769 175.005,199.375 175.350,198.917 175.770 M245.687 175.333 C 245.684 175.471,245.785 175.808,245.911 176.083 C 246.205 176.727,246.210 176.428,245.917 175.667 C 245.793 175.346,245.690 175.196,245.687 175.333 M276.539 175.833 C 276.539 176.154,276.573 176.285,276.615 176.125 C 276.657 175.965,276.657 175.702,276.615 175.542 C 276.573 175.381,276.539 175.512,276.539 175.833 M168.178 175.705 C 168.159 175.902,168.702 177.187,168.774 177.115 C 168.811 177.078,168.694 176.719,168.515 176.316 C 168.336 175.913,168.185 175.638,168.178 175.705 M205.502 175.764 C 205.504 175.958,206.479 177.667,206.588 177.667 C 206.633 177.667,206.431 177.235,206.139 176.708 C 205.522 175.595,205.499 175.561,205.502 175.764 M298.167 177.029 C 296.896 178.239,296.870 178.274,297.917 177.374 C 299.015 176.430,299.802 175.658,299.651 175.674 C 299.614 175.678,298.946 176.288,298.167 177.029 M238.583 177.352 C 237.315 178.376,237.111 178.661,238.302 177.744 C 239.222 177.036,239.639 176.653,239.468 176.673 C 239.440 176.676,239.042 176.981,238.583 177.352 M246.178 176.750 C 246.178 176.842,246.286 177.104,246.417 177.333 C 246.548 177.563,246.655 177.675,246.655 177.583 C 246.655 177.492,246.548 177.229,246.417 177.000 C 246.286 176.771,246.178 176.658,246.178 176.750 M268.250 178.960 C 267.058 180.121,266.458 180.760,266.917 180.381 C 267.749 179.692,270.647 176.826,270.496 176.841 C 270.453 176.846,269.442 177.799,268.250 178.960 M196.494 177.679 L 195.917 178.191 196.542 177.742 C 197.094 177.346,197.274 177.167,197.119 177.167 C 197.092 177.167,196.811 177.397,196.494 177.679 M296.073 178.875 L 295.583 179.417 296.125 178.927 C 296.630 178.471,296.743 178.333,296.615 178.333 C 296.586 178.333,296.342 178.577,296.073 178.875 M194.083 179.431 L 193.583 179.861 194.125 179.502 C 194.423 179.305,194.667 179.112,194.667 179.072 C 194.667 178.947,194.596 178.991,194.083 179.431 M235.769 179.499 C 234.977 180.099,234.810 180.270,235.250 180.031 C 235.632 179.823,236.625 179.013,236.500 179.011 C 236.454 179.010,236.125 179.230,235.769 179.499 M208.500 180.083 C 208.998 180.588,209.443 181.000,209.489 181.000 C 209.534 181.000,209.165 180.588,208.667 180.083 C 208.169 179.579,207.724 179.167,207.678 179.167 C 207.632 179.167,208.002 179.579,208.500 180.083 M294.667 180.023 L 293.917 180.702 294.623 180.172 C 295.237 179.711,295.631 179.323,295.468 179.338 C 295.440 179.341,295.079 179.649,294.667 180.023 M170.790 180.417 C 171.073 180.783,171.590 181.346,171.940 181.667 C 172.355 182.048,172.264 181.904,171.676 181.250 C 170.431 179.864,170.189 179.637,170.790 180.417 M192.875 180.186 C 192.307 180.550,192.123 180.794,192.625 180.518 C 193.007 180.308,193.606 179.845,193.500 179.841 C 193.454 179.840,193.173 179.995,192.875 180.186 M248.327 180.412 C 248.777 181.035,250.245 182.522,250.750 182.867 C 251.025 183.054,250.898 182.896,250.468 182.516 C 250.038 182.135,249.325 181.430,248.885 180.949 C 248.444 180.468,248.193 180.226,248.327 180.412 M277.833 180.442 C 277.833 180.722,279.081 182.555,279.516 182.914 C 279.865 183.202,279.859 183.181,279.470 182.747 C 279.224 182.474,278.755 181.804,278.428 181.260 C 278.101 180.715,277.833 180.347,277.833 180.442 M189.167 182.333 C 188.479 182.691,187.975 182.987,188.046 182.992 C 188.223 183.003,190.500 181.849,190.500 181.748 C 190.500 181.635,190.555 181.611,189.167 182.333 M210.627 181.869 C 210.823 182.105,212.167 182.905,212.167 182.786 C 212.167 182.748,211.778 182.475,211.303 182.180 C 210.828 181.884,210.524 181.744,210.627 181.869 M291.428 182.349 C 290.213 183.156,290.027 183.341,290.938 182.840 C 291.582 182.486,292.685 181.670,292.500 181.686 C 292.454 181.689,291.972 181.988,291.428 182.349 M264.124 182.319 C 263.439 182.758,263.344 182.913,263.948 182.606 C 264.240 182.457,264.526 182.260,264.583 182.168 C 264.716 181.952,264.676 181.965,264.124 182.319 M172.667 182.227 C 172.667 182.273,172.892 182.471,173.167 182.667 C 173.442 182.862,173.667 182.985,173.667 182.939 C 173.667 182.894,173.442 182.696,173.167 182.500 C 172.892 182.304,172.667 182.181,172.667 182.227 M230.167 182.750 C 229.938 182.881,229.825 182.988,229.917 182.988 C 230.008 182.988,230.271 182.881,230.500 182.750 C 230.729 182.619,230.842 182.512,230.750 182.512 C 230.658 182.512,230.396 182.619,230.167 182.750 M280.667 183.748 C 280.667 183.862,281.687 184.368,281.763 184.292 C 281.800 184.256,281.568 184.102,281.248 183.949 C 280.928 183.797,280.667 183.706,280.667 183.748 M178.250 184.682 C 178.911 184.813,181.786 184.889,181.653 184.773 C 181.615 184.739,180.683 184.675,179.583 184.631 C 178.381 184.582,177.849 184.603,178.250 184.682 M182.127 184.618 C 182.334 184.658,182.634 184.656,182.794 184.615 C 182.953 184.573,182.783 184.540,182.417 184.542 C 182.050 184.544,181.920 184.578,182.127 184.618 M217.625 184.618 C 217.831 184.657,218.169 184.657,218.375 184.618 C 218.581 184.578,218.412 184.545,218.000 184.545 C 217.588 184.545,217.419 184.578,217.625 184.618 M222.958 184.618 C 223.165 184.657,223.502 184.657,223.708 184.618 C 223.915 184.578,223.746 184.545,223.333 184.545 C 222.921 184.545,222.752 184.578,222.958 184.618 M258.208 184.615 C 258.369 184.657,258.631 184.657,258.792 184.615 C 258.952 184.573,258.821 184.539,258.500 184.539 C 258.179 184.539,258.048 184.573,258.208 184.615 M282.917 184.671 C 283.424 184.796,285.780 184.884,285.653 184.773 C 285.615 184.740,284.871 184.675,284.000 184.630 C 283.129 184.585,282.642 184.603,282.917 184.671 M219.708 184.790 C 220.235 184.823,221.098 184.823,221.625 184.790 C 222.152 184.757,221.721 184.730,220.667 184.730 C 219.612 184.730,219.181 184.757,219.708 184.790 M255.963 184.789 C 256.355 184.824,256.955 184.824,257.296 184.788 C 257.637 184.752,257.317 184.723,256.583 184.724 C 255.850 184.724,255.571 184.754,255.963 184.789 " stroke="none" fill="" fill-rule="evenodd"></path></g></svg>