<svg id="svg" version="1.1" xmlns="http://www.w3.org/2000/svg" xmlns:xlink="http://www.w3.org/1999/xlink" width="400" height="634.9206349206349" viewBox="0, 0, 400,634.9206349206349"><g id="svgg"><path id="path0" d="M109.205 256.900 C 109.211 295.206,109.173 294.262,110.748 294.704 C 112.782 295.276,181.900 295.060,182.480 294.480 C 183.013 293.947,183.520 224.196,183.006 222.100 L 182.785 221.200 145.992 221.200 L 109.200 221.200 109.205 256.900 M112.500 479.700 C 112.775 480.524,178.915 480.625,179.598 479.802 C 180.043 479.267,176.345 479.200,146.216 479.200 C 119.288 479.200,112.368 479.303,112.500 479.700 " stroke="none" fill="" fill-rule="evenodd"></path><path id="path1" d="M219.200 376.120 C 219.200 403.991,219.314 412.754,219.680 413.120 C 220.184 413.624,289.624 413.851,291.475 413.354 C 291.977 413.220,292.531 412.600,292.775 411.900 C 293.232 410.588,293.408 341.408,292.957 340.233 C 292.738 339.662,289.106 339.600,255.957 339.600 L 219.200 339.600 219.200 376.120 " stroke="none" fill="" fill-rule="evenodd"></path><path id="path2" d="M328.099 239.651 C 328.020 431.153,328.101 479.580,328.500 479.889 C 329.242 480.463,330.477 480.848,330.214 480.423 C 330.089 480.221,330.179 479.937,330.413 479.792 C 330.711 479.608,330.702 479.364,330.385 478.982 C 330.135 478.681,330.064 478.219,330.227 477.956 C 330.415 477.652,330.354 477.581,330.062 477.762 C 329.713 477.977,329.576 419.550,329.500 238.924 L 329.401 -0.200 329.200 239.000 C 329.089 370.560,328.910 478.110,328.800 478.000 C 328.691 477.890,328.511 370.250,328.400 238.800 L 328.199 -0.200 328.099 239.651 M112.687 35.900 C 112.919 36.517,112.869 36.534,112.263 36.041 C 111.367 35.312,109.453 36.906,109.823 38.073 C 109.950 38.473,109.862 38.800,109.627 38.800 C 109.326 38.800,109.200 59.570,109.200 109.200 C 109.200 171.511,109.269 179.600,109.800 179.600 C 110.509 179.600,110.515 179.644,110.011 180.970 C 109.552 182.178,109.888 183.328,110.619 183.048 C 110.902 182.939,111.233 183.109,111.354 183.425 C 111.544 183.919,116.509 184.000,146.520 184.000 L 181.465 184.000 181.980 183.038 C 182.263 182.509,182.373 181.879,182.224 181.638 C 182.075 181.397,182.143 181.200,182.376 181.200 C 182.609 181.200,182.789 180.795,182.775 180.300 L 182.749 179.400 182.371 180.346 C 182.057 181.128,181.889 181.206,181.396 180.797 C 180.908 180.392,180.800 180.424,180.800 180.975 C 180.800 181.345,180.980 181.536,181.200 181.400 C 181.420 181.264,181.600 181.343,181.600 181.576 C 181.600 182.188,181.175 182.099,180.273 181.300 C 179.507 180.620,179.497 180.626,179.959 181.506 C 180.487 182.512,179.772 182.658,179.001 181.702 C 178.200 180.707,113.206 180.804,113.175 181.800 C 113.151 182.534,113.119 182.526,112.788 181.700 C 112.589 181.205,112.195 180.814,111.913 180.832 C 111.511 180.856,111.509 180.907,111.900 181.065 C 112.175 181.176,112.400 181.470,112.400 181.719 C 112.400 181.973,112.113 181.884,111.745 181.517 C 111.365 181.136,111.199 180.579,111.350 180.187 C 111.492 179.815,111.651 147.986,111.702 109.456 L 111.794 39.400 111.999 109.200 L 112.203 179.000 112.302 109.143 C 112.392 44.778,112.349 39.266,111.746 39.034 C 111.020 38.756,111.825 37.483,112.902 37.205 C 114.436 36.809,178.558 36.833,179.036 37.230 C 179.327 37.471,179.753 37.553,179.982 37.411 C 180.212 37.269,180.400 37.323,180.400 37.532 C 180.400 37.740,180.708 37.886,181.085 37.856 C 181.461 37.825,181.834 38.115,181.914 38.500 C 182.003 38.932,181.817 39.200,181.428 39.200 C 180.577 39.200,180.649 178.816,181.500 179.100 C 181.899 179.233,182.000 165.089,182.000 109.267 C 182.000 53.623,182.103 39.232,182.500 39.098 C 182.896 38.965,182.893 38.800,182.483 38.304 C 182.061 37.792,182.061 37.640,182.483 37.470 C 182.901 37.303,182.900 37.257,182.476 37.232 C 182.188 37.214,182.067 37.016,182.206 36.790 C 182.345 36.565,182.221 36.430,181.930 36.490 C 181.638 36.551,181.448 36.367,181.506 36.083 C 181.586 35.690,181.423 35.666,180.830 35.984 C 180.367 36.232,179.956 36.253,179.822 36.035 C 179.697 35.833,179.821 35.577,180.098 35.466 C 180.374 35.354,165.261 35.249,146.513 35.232 C 114.208 35.202,112.439 35.237,112.687 35.900 M111.201 36.998 C 110.686 37.548,110.175 37.909,110.068 37.801 C 109.802 37.535,111.221 36.000,111.732 36.000 C 111.956 36.000,111.717 36.449,111.201 36.998 M16.700 153.900 C 25.995 153.960,41.205 153.960,50.500 153.900 C 59.795 153.840,52.190 153.791,33.600 153.791 C 15.010 153.791,7.405 153.840,16.700 153.900 M69.786 154.377 C 69.911 154.579,69.821 154.863,69.587 155.008 C 69.289 155.192,69.298 155.436,69.615 155.818 C 69.865 156.119,69.960 156.540,69.828 156.755 C 69.695 156.969,69.770 157.258,69.993 157.396 C 70.268 157.566,70.400 235.051,70.400 396.224 C 70.400 634.533,70.401 634.800,71.200 634.800 C 72.201 634.800,72.501 155.685,71.500 154.911 C 70.758 154.337,69.523 153.952,69.786 154.377 M220.000 154.600 C 219.631 155.044,219.618 155.340,219.948 155.737 C 220.193 156.032,220.284 156.382,220.151 156.515 C 220.018 156.648,220.277 156.729,220.727 156.696 C 221.177 156.662,221.438 156.461,221.307 156.249 C 221.171 156.029,221.352 155.973,221.730 156.118 C 222.442 156.391,222.496 155.618,221.800 155.106 C 221.580 154.944,221.760 154.807,222.200 154.800 C 222.864 154.790,222.898 154.722,222.400 154.400 C 221.526 153.835,220.569 153.915,220.000 154.600 M11.800 154.693 C 43.126 154.969,67.506 154.972,67.338 154.700 C 67.236 154.535,51.998 154.442,33.476 154.494 C 14.954 154.546,5.200 154.635,11.800 154.693 M291.156 154.900 C 291.725 155.634,291.245 155.885,290.567 155.207 C 290.310 154.950,290.191 155.192,290.224 155.907 C 290.262 156.746,290.466 156.990,291.103 156.955 C 291.708 156.922,291.867 157.085,291.691 157.555 C 291.480 158.121,291.536 158.130,292.144 157.635 C 292.642 157.230,292.705 156.988,292.368 156.780 C 292.109 156.620,292.006 156.313,292.139 156.098 C 292.272 155.883,291.983 155.368,291.497 154.953 C 290.762 154.327,290.705 154.318,291.156 154.900 M290.400 227.576 C 290.400 273.796,290.536 297.637,290.800 297.800 C 291.066 297.964,291.200 274.537,291.200 227.824 C 291.200 181.275,291.065 157.600,290.800 157.600 C 290.535 157.600,290.400 181.192,290.400 227.576 M219.690 297.500 C 219.796 298.658,219.717 299.600,219.513 299.600 C 219.309 299.600,219.426 299.883,219.771 300.229 C 220.492 300.949,220.604 301.373,219.970 300.982 C 219.734 300.836,219.778 301.095,220.067 301.558 L 220.592 302.400 256.082 302.400 C 291.283 302.400,291.575 302.393,292.004 301.592 C 292.706 300.280,291.860 299.685,290.500 300.535 C 290.225 300.707,289.792 300.719,289.538 300.562 C 289.252 300.385,289.185 300.452,289.362 300.738 C 289.577 301.086,281.380 301.200,256.200 301.200 C 230.765 301.200,222.822 301.088,223.042 300.732 C 223.233 300.423,223.118 300.346,222.705 300.504 C 222.297 300.661,222.008 300.475,221.876 299.971 C 221.743 299.460,221.458 299.280,221.037 299.441 C 220.233 299.750,220.235 299.451,221.043 298.086 L 221.687 297.000 220.907 297.866 L 220.127 298.732 220.074 297.309 C 220.044 296.527,219.902 295.777,219.759 295.643 C 219.615 295.510,219.584 296.345,219.690 297.500 M112.182 332.514 C 111.225 333.337,111.198 333.429,111.914 333.429 C 112.444 333.429,112.635 333.235,112.487 332.849 C 112.344 332.476,112.431 332.372,112.732 332.558 C 112.989 332.717,113.200 332.669,113.200 332.451 C 113.200 332.234,113.605 331.978,114.100 331.882 L 115.000 331.709 114.122 331.654 C 113.640 331.625,112.766 332.011,112.182 332.514 M180.800 332.600 C 180.282 333.152,180.082 333.600,180.354 333.600 C 180.625 333.600,180.755 333.750,180.641 333.933 C 180.528 334.117,180.689 334.267,181.000 334.267 C 181.311 334.267,181.448 334.072,181.306 333.833 C 181.163 333.595,181.331 333.631,181.680 333.913 C 182.193 334.329,182.227 334.608,181.856 335.394 C 181.463 336.230,181.362 336.269,181.128 335.682 C 180.979 335.307,180.856 366.590,180.856 405.200 C 180.856 443.810,180.999 475.040,181.174 474.600 L 181.492 473.800 181.700 474.600 C 181.814 475.040,181.928 443.870,181.954 405.333 C 181.990 349.670,182.103 335.232,182.500 335.098 C 182.896 334.965,182.892 334.799,182.481 334.301 C 182.110 333.852,182.088 333.593,182.405 333.397 C 182.701 333.214,182.609 332.928,182.124 332.532 C 181.726 332.207,181.653 332.072,181.962 332.232 C 182.331 332.424,182.426 332.365,182.238 332.062 C 181.862 331.454,181.884 331.446,180.800 332.600 M179.232 332.700 C 179.251 333.122,179.344 333.201,179.466 332.898 C 179.577 332.621,179.821 332.489,180.007 332.604 C 180.193 332.719,180.458 332.630,180.596 332.407 C 180.735 332.181,180.480 332.000,180.024 332.000 C 179.494 332.000,179.211 332.250,179.232 332.700 M110.122 334.567 C 110.165 334.805,109.975 334.955,109.700 334.900 C 109.302 334.820,109.200 349.133,109.200 405.400 C 109.200 468.608,109.264 476.000,109.814 476.000 C 110.315 476.000,110.345 476.156,109.977 476.843 C 109.635 477.483,109.645 477.796,110.022 478.143 C 110.403 478.495,110.451 478.462,110.229 478.000 C 110.048 477.624,110.153 477.659,110.510 478.094 C 110.823 478.475,111.196 478.670,111.340 478.527 C 111.483 478.384,111.600 478.477,111.600 478.733 C 111.600 479.085,120.076 479.198,146.100 479.191 C 180.414 479.182,180.595 479.178,179.600 478.400 C 178.509 477.547,113.200 477.111,113.200 477.957 C 113.200 478.154,112.890 478.433,112.512 478.578 C 112.134 478.724,111.954 478.712,112.113 478.554 C 112.272 478.395,112.086 477.890,111.701 477.432 L 111.000 476.600 111.957 477.400 L 112.913 478.200 112.360 477.300 C 112.056 476.805,111.649 476.400,111.455 476.400 C 111.261 476.400,111.326 476.130,111.600 475.800 C 111.874 475.470,111.941 475.200,111.749 475.200 C 111.551 475.200,111.444 445.003,111.502 405.544 C 111.584 350.127,111.502 335.761,111.102 335.267 C 110.712 334.785,110.711 334.713,111.095 334.944 C 111.419 335.138,111.517 335.049,111.378 334.687 C 111.129 334.038,110.008 333.930,110.122 334.567 M112.196 405.200 C 112.196 443.590,112.243 459.295,112.300 440.100 C 112.357 420.905,112.357 389.495,112.300 370.300 C 112.243 351.105,112.196 366.810,112.196 405.200 M221.771 450.629 C 222.685 451.542,222.542 451.711,221.456 451.000 C 220.640 450.465,220.449 450.459,220.037 450.955 C 219.707 451.353,219.692 451.609,219.987 451.792 C 220.221 451.937,220.314 452.216,220.193 452.412 C 219.878 452.921,222.540 451.958,222.893 451.434 C 223.053 451.196,222.884 450.775,222.516 450.500 C 221.563 449.787,221.023 449.881,221.771 450.629 M289.200 450.600 C 288.926 450.930,288.859 451.243,289.051 451.297 C 289.243 451.350,274.550 451.488,256.400 451.604 L 223.400 451.815 257.111 451.891 C 292.701 451.970,291.994 451.939,291.022 453.423 C 290.269 454.572,290.050 593.336,290.800 593.800 C 291.066 593.964,291.200 570.530,291.200 523.800 C 291.200 483.055,291.349 453.645,291.555 453.772 C 291.750 453.893,292.135 453.719,292.411 453.386 C 292.834 452.877,292.799 452.825,292.191 453.059 C 291.741 453.231,291.564 453.181,291.722 452.926 C 292.045 452.403,290.253 450.691,289.807 451.096 C 289.623 451.263,289.586 451.085,289.724 450.700 C 290.032 449.842,289.857 449.808,289.200 450.600 M332.710 479.423 C 332.587 479.546,332.578 479.996,332.690 480.423 C 332.889 481.184,333.563 481.200,366.447 481.200 L 400.000 481.200 400.000 480.200 L 400.000 479.200 366.467 479.200 C 348.023 479.200,332.833 479.300,332.710 479.423 M381.300 479.900 C 372.445 479.960,357.955 479.960,349.100 479.900 C 340.245 479.840,347.490 479.791,365.200 479.791 C 382.910 479.791,390.155 479.840,381.300 479.900 M219.646 593.033 C 219.596 594.363,219.896 594.912,220.475 594.554 C 220.692 594.420,220.686 594.141,220.462 593.864 C 220.255 593.609,219.998 593.040,219.889 592.600 C 219.754 592.049,219.678 592.184,219.646 593.033 M290.483 596.413 C 289.541 597.176,223.830 597.696,223.079 596.946 C 222.766 596.632,220.368 596.460,219.870 596.715 C 219.688 596.808,219.945 597.315,220.440 597.842 L 221.339 598.800 255.846 598.800 C 287.131 598.800,292.274 598.661,290.302 597.866 C 290.026 597.754,290.385 597.649,291.100 597.632 C 292.455 597.599,292.837 596.860,291.900 596.084 C 291.543 595.788,291.138 595.882,290.483 596.413 " stroke="none" fill="" fill-rule="evenodd"></path><path id="path3" d="M327.200 240.357 C 327.200 459.163,327.257 480.736,327.833 480.957 C 329.646 481.653,332.853 481.222,332.725 480.300 L 332.600 479.400 366.300 479.298 C 396.736 479.205,402.209 479.036,399.300 478.276 C 398.633 478.102,398.633 478.091,399.300 478.046 C 399.966 478.002,400.000 466.335,400.000 239.000 L 400.000 0.000 364.800 0.000 L 329.600 0.000 329.600 239.024 C 329.600 419.597,329.713 477.977,330.062 477.762 C 330.354 477.581,330.415 477.652,330.227 477.956 C 330.064 478.219,330.135 478.681,330.385 478.982 C 330.702 479.364,330.711 479.608,330.413 479.792 C 330.179 479.937,330.089 480.221,330.214 480.423 C 330.477 480.848,329.242 480.463,328.500 479.889 C 328.101 479.580,328.000 431.079,328.000 239.751 C 328.000 80.184,327.866 0.000,327.600 0.000 C 327.334 0.000,327.200 80.386,327.200 240.357 M328.406 238.500 C 328.410 391.787,328.551 477.214,328.800 477.600 C 329.051 477.988,329.190 393.612,329.194 239.100 C 329.198 79.963,329.066 0.000,328.800 0.000 C 328.534 0.000,328.402 79.763,328.406 238.500 M109.700 35.065 C 109.085 35.313,109.017 38.800,109.627 38.800 C 109.862 38.800,109.950 38.473,109.823 38.073 C 109.453 36.906,111.367 35.312,112.263 36.041 C 112.869 36.534,112.919 36.517,112.687 35.900 C 112.439 35.237,114.208 35.202,146.513 35.232 C 165.261 35.249,180.374 35.354,180.098 35.466 C 179.821 35.577,179.697 35.833,179.822 36.035 C 179.956 36.253,180.367 36.232,180.830 35.984 C 181.423 35.666,181.586 35.690,181.506 36.083 C 181.448 36.367,181.638 36.551,181.930 36.490 C 182.221 36.430,182.355 36.549,182.227 36.756 C 182.100 36.963,182.221 37.223,182.498 37.334 C 182.872 37.485,182.860 37.545,182.451 37.568 C 181.986 37.595,181.986 37.701,182.451 38.265 C 182.879 38.784,182.890 38.967,182.500 39.098 C 182.103 39.232,182.000 53.623,182.000 109.267 C 182.000 165.089,181.899 179.233,181.500 179.100 C 180.649 178.816,180.577 39.200,181.428 39.200 C 181.817 39.200,182.003 38.932,181.914 38.500 C 181.834 38.115,181.461 37.825,181.085 37.856 C 180.708 37.886,180.400 37.740,180.400 37.532 C 180.400 37.323,180.212 37.269,179.982 37.411 C 179.753 37.553,179.327 37.471,179.036 37.230 C 178.558 36.833,114.436 36.809,112.902 37.205 C 111.825 37.483,111.020 38.756,111.746 39.034 C 112.349 39.266,112.392 44.778,112.302 109.143 L 112.203 179.000 111.999 109.200 L 111.794 39.400 111.702 109.456 C 111.651 147.986,111.492 179.815,111.350 180.187 C 111.199 180.579,111.365 181.136,111.745 181.517 C 112.113 181.884,112.400 181.973,112.400 181.719 C 112.400 181.470,112.175 181.176,111.900 181.065 C 111.509 180.907,111.511 180.856,111.913 180.832 C 112.195 180.814,112.589 181.205,112.788 181.700 C 113.119 182.526,113.151 182.534,113.175 181.800 C 113.206 180.804,178.200 180.707,179.001 181.702 C 179.772 182.658,180.487 182.512,179.959 181.506 C 179.497 180.626,179.507 180.620,180.273 181.300 C 181.175 182.099,181.600 182.188,181.600 181.576 C 181.600 181.343,181.420 181.264,181.200 181.400 C 180.980 181.536,180.800 181.345,180.800 180.975 C 180.800 180.424,180.908 180.392,181.396 180.797 C 181.889 181.206,182.057 181.128,182.371 180.346 L 182.749 179.400 182.775 180.300 C 182.789 180.795,182.609 181.200,182.376 181.200 C 182.143 181.200,182.075 181.397,182.224 181.638 C 182.373 181.879,182.263 182.509,181.980 183.038 L 181.465 184.000 146.142 184.000 L 110.818 184.000 110.199 183.054 C 109.721 182.326,109.673 181.859,109.989 181.028 C 110.518 179.639,110.512 179.600,109.800 179.600 C 109.372 179.600,109.202 180.031,109.205 181.100 C 109.215 183.720,109.562 184.359,111.221 184.806 C 113.668 185.465,181.807 185.153,182.480 184.480 C 183.191 183.769,183.463 36.199,182.755 35.346 C 182.306 34.805,111.025 34.530,109.700 35.065 M110.598 36.802 C 109.528 37.984,110.101 38.170,111.201 36.998 C 111.717 36.449,111.956 36.000,111.732 36.000 C 111.507 36.000,110.997 36.361,110.598 36.802 M33.600 154.000 L -0.200 154.207 33.476 154.303 C 51.998 154.357,67.236 154.535,67.338 154.700 C 67.440 154.865,52.331 154.953,33.762 154.896 L 0.000 154.791 0.000 394.796 L 0.000 634.800 35.200 634.800 L 70.400 634.800 70.400 396.280 C 70.400 206.018,70.299 157.651,69.900 157.221 C 69.493 156.783,69.512 156.747,70.000 157.026 C 70.473 157.297,70.453 157.144,69.904 156.305 C 69.473 155.646,69.362 155.147,69.611 154.993 C 69.832 154.857,69.911 154.579,69.786 154.377 C 69.523 153.952,70.758 154.337,71.500 154.911 C 71.899 155.220,72.000 203.721,72.000 395.049 C 72.000 554.616,72.134 634.800,72.400 634.800 C 73.028 634.800,72.948 154.708,72.320 154.080 C 72.035 153.795,70.938 153.639,69.620 153.697 C 68.399 153.750,52.190 153.886,33.600 154.000 M219.203 226.598 C 219.198 267.126,219.347 299.600,219.538 299.600 C 219.728 299.600,219.796 298.655,219.690 297.500 C 219.584 296.345,219.615 295.510,219.759 295.643 C 219.902 295.777,220.044 296.527,220.074 297.309 L 220.127 298.732 220.907 297.866 L 221.687 297.000 221.043 298.086 C 220.253 299.420,220.253 299.458,221.021 299.753 C 221.422 299.907,221.542 299.829,221.359 299.534 C 221.185 299.252,221.254 299.186,221.538 299.362 C 221.792 299.519,222.000 299.901,222.000 300.211 C 222.000 300.573,222.239 300.683,222.666 300.519 C 223.113 300.348,223.236 300.417,223.042 300.732 C 222.822 301.088,230.765 301.200,256.200 301.200 C 281.380 301.200,289.577 301.086,289.362 300.738 C 289.185 300.452,289.252 300.385,289.538 300.562 C 289.792 300.719,290.225 300.707,290.500 300.535 C 291.860 299.685,292.706 300.280,292.004 301.592 C 291.575 302.393,291.283 302.400,256.082 302.400 L 220.592 302.400 220.067 301.558 C 219.778 301.095,219.732 300.834,219.966 300.979 C 220.226 301.139,220.298 301.000,220.153 300.621 C 219.737 299.538,219.200 299.950,219.200 301.351 C 219.200 302.094,219.447 302.907,219.749 303.157 C 220.599 303.863,291.768 303.592,292.480 302.880 C 292.903 302.457,293.000 288.488,293.000 228.080 L 293.000 153.800 256.106 153.698 L 219.212 153.596 219.203 226.598 M222.400 154.400 C 222.898 154.722,222.864 154.790,222.200 154.800 C 221.760 154.807,221.580 154.944,221.800 155.106 C 222.496 155.618,222.442 156.391,221.730 156.118 C 221.352 155.973,221.171 156.029,221.307 156.249 C 221.438 156.461,221.177 156.662,220.727 156.696 C 220.277 156.729,220.018 156.648,220.151 156.515 C 220.284 156.382,220.193 156.032,219.948 155.737 C 218.999 154.593,221.006 153.499,222.400 154.400 M292.139 156.098 C 292.006 156.313,292.109 156.620,292.368 156.780 C 292.705 156.988,292.642 157.230,292.144 157.635 C 291.536 158.130,291.480 158.121,291.691 157.555 C 291.867 157.085,291.708 156.922,291.103 156.955 C 290.466 156.990,290.262 156.746,290.224 155.907 C 290.191 155.192,290.310 154.950,290.567 155.207 C 291.245 155.885,291.725 155.634,291.156 154.900 C 290.705 154.318,290.762 154.327,291.497 154.953 C 291.983 155.368,292.272 155.883,292.139 156.098 M291.200 227.824 C 291.200 274.537,291.066 297.964,290.800 297.800 C 290.536 297.637,290.400 273.796,290.400 227.576 C 290.400 181.192,290.535 157.600,290.800 157.600 C 291.065 157.600,291.200 181.275,291.200 227.824 M109.278 333.098 C 109.345 334.145,109.580 334.937,109.800 334.860 C 110.020 334.783,110.165 334.588,110.122 334.427 C 109.978 333.882,111.164 334.128,111.378 334.687 C 111.517 335.049,111.419 335.138,111.095 334.944 C 110.711 334.713,110.712 334.785,111.102 335.267 C 111.502 335.761,111.584 350.127,111.502 405.544 C 111.444 445.003,111.551 475.200,111.749 475.200 C 111.941 475.200,111.874 475.470,111.600 475.800 C 111.326 476.130,111.261 476.400,111.455 476.400 C 111.649 476.400,112.056 476.805,112.360 477.300 L 112.913 478.200 111.957 477.400 L 111.000 476.600 111.701 477.432 C 112.086 477.890,112.272 478.395,112.113 478.554 C 111.954 478.712,112.134 478.724,112.512 478.578 C 112.890 478.433,113.200 478.154,113.200 477.957 C 113.200 477.111,178.509 477.547,179.600 478.400 C 180.150 478.830,181.185 479.186,181.901 479.191 L 183.202 479.200 183.101 405.300 L 183.000 331.400 146.078 331.298 L 109.156 331.196 109.278 333.098 M114.100 331.882 C 113.605 331.978,113.200 332.234,113.200 332.451 C 113.200 332.669,112.989 332.717,112.732 332.558 C 112.431 332.372,112.344 332.476,112.487 332.849 C 112.635 333.235,112.444 333.429,111.914 333.429 C 111.198 333.429,111.225 333.337,112.182 332.514 C 112.766 332.011,113.640 331.625,114.122 331.654 L 115.000 331.709 114.100 331.882 M182.238 332.062 C 182.426 332.365,182.331 332.424,181.962 332.232 C 181.653 332.072,181.726 332.207,182.124 332.532 C 182.609 332.928,182.701 333.214,182.405 333.397 C 182.088 333.593,182.110 333.852,182.481 334.301 C 182.892 334.799,182.896 334.965,182.500 335.098 C 182.103 335.232,181.990 349.670,181.954 405.333 C 181.928 443.870,181.814 475.040,181.700 474.600 L 181.492 473.800 181.174 474.600 C 180.999 475.040,180.856 443.810,180.856 405.200 C 180.856 366.590,180.979 335.307,181.128 335.682 C 181.362 336.269,181.463 336.230,181.856 335.394 C 182.227 334.608,182.193 334.329,181.680 333.913 C 181.331 333.631,181.163 333.595,181.306 333.833 C 181.448 334.072,181.311 334.267,181.000 334.267 C 180.689 334.267,180.528 334.117,180.641 333.933 C 180.755 333.750,180.625 333.600,180.354 333.600 C 180.082 333.600,180.282 333.152,180.800 332.600 C 181.884 331.446,181.862 331.454,182.238 332.062 M180.596 332.407 C 180.458 332.630,180.193 332.719,180.007 332.604 C 179.821 332.489,179.577 332.621,179.466 332.898 C 179.344 333.201,179.251 333.122,179.232 332.700 C 179.211 332.250,179.494 332.000,180.024 332.000 C 180.480 332.000,180.735 332.181,180.596 332.407 M112.300 440.100 C 112.243 459.295,112.196 443.590,112.196 405.200 C 112.196 366.810,112.243 351.105,112.300 370.300 C 112.357 389.495,112.357 420.905,112.300 440.100 M219.202 523.969 C 219.197 591.147,219.257 598.400,219.827 598.969 C 220.391 599.534,224.122 599.600,255.403 599.600 C 290.340 599.600,292.400 599.523,292.400 598.210 C 292.400 597.874,292.580 597.600,292.800 597.600 C 293.236 597.600,293.392 451.367,292.957 450.233 C 292.738 449.662,289.106 449.600,255.961 449.600 L 219.208 449.600 219.202 523.969 M222.516 450.500 C 222.884 450.775,223.053 451.196,222.893 451.434 C 222.540 451.958,219.878 452.921,220.193 452.412 C 220.314 452.216,220.221 451.937,219.987 451.792 C 219.692 451.609,219.707 451.353,220.037 450.955 C 220.449 450.459,220.640 450.465,221.456 451.000 C 222.542 451.711,222.685 451.542,221.771 450.629 C 221.023 449.881,221.563 449.787,222.516 450.500 M289.724 450.700 C 289.586 451.085,289.623 451.263,289.807 451.096 C 290.253 450.691,292.045 452.403,291.722 452.926 C 291.564 453.181,291.741 453.231,292.191 453.059 C 292.799 452.825,292.834 452.877,292.411 453.386 C 292.135 453.719,291.750 453.893,291.555 453.772 C 291.349 453.645,291.200 483.055,291.200 523.800 C 291.200 570.530,291.066 593.964,290.800 593.800 C 290.050 593.336,290.269 454.572,291.022 453.423 C 291.994 451.939,292.701 451.970,257.111 451.891 L 223.400 451.815 256.400 451.604 C 274.550 451.488,289.243 451.350,289.051 451.297 C 288.859 451.243,288.926 450.930,289.200 450.600 C 289.857 449.808,290.032 449.842,289.724 450.700 M109.200 477.600 C 109.200 479.111,109.267 479.200,110.400 479.200 C 111.060 479.200,111.600 478.990,111.600 478.733 C 111.600 478.477,111.483 478.384,111.340 478.527 C 111.196 478.670,110.823 478.475,110.510 478.094 C 110.153 477.659,110.048 477.624,110.229 478.000 C 110.451 478.462,110.403 478.495,110.022 478.143 C 109.645 477.796,109.635 477.483,109.977 476.843 C 110.345 476.156,110.315 476.000,109.814 476.000 C 109.364 476.000,109.200 476.428,109.200 477.600 M349.100 479.900 C 357.955 479.960,372.445 479.960,381.300 479.900 C 390.155 479.840,382.910 479.791,365.200 479.791 C 347.490 479.791,340.245 479.840,349.100 479.900 M220.462 593.864 C 220.686 594.141,220.692 594.420,220.475 594.554 C 219.896 594.912,219.596 594.363,219.646 593.033 C 219.678 592.184,219.754 592.049,219.889 592.600 C 219.998 593.040,220.255 593.609,220.462 593.864 M292.400 596.917 C 292.400 598.871,293.766 598.800,255.961 598.800 L 220.845 598.800 220.239 597.935 C 219.906 597.459,219.710 596.946,219.803 596.796 C 220.010 596.459,222.727 596.594,223.091 596.958 C 223.834 597.700,289.550 597.169,290.483 596.413 C 291.400 595.669,292.400 595.933,292.400 596.917 " stroke="none" fill="" fill-rule="evenodd"></path><path id="path4" d="M290.229 597.900 C 290.428 598.065,290.699 598.344,290.831 598.519 C 290.963 598.694,291.302 598.559,291.584 598.219 C 292.027 597.686,291.944 597.600,290.982 597.600 C 290.369 597.600,290.030 597.735,290.229 597.900 " stroke="none" fill="" fill-rule="evenodd"></path><path id="path5" d="" stroke="none" fill="" fill-rule="evenodd"></path></g></svg>