<svg id="svg" version="1.1" xmlns="http://www.w3.org/2000/svg" xmlns:xlink="http://www.w3.org/1999/xlink" width="400" height="310" viewBox="0, 0, 400,310"><g id="svgg"><path id="path0" d="M192.250 1.613 C 189.350 1.688,183.041 2.003,179.500 2.250 C 177.621 2.381,175.315 2.528,174.376 2.576 C 173.436 2.625,172.311 2.702,171.876 2.748 C 165.324 3.437,163.538 3.658,158.417 4.412 C 156.308 4.722,154.171 5.021,153.667 5.075 C 151.904 5.267,147.642 6.046,143.156 6.996 C 141.866 7.270,140.459 7.539,140.030 7.593 C 138.992 7.726,136.219 8.355,132.750 9.244 C 131.192 9.644,129.654 10.012,129.333 10.063 C 128.653 10.171,124.456 11.306,122.167 12.002 C 121.296 12.267,120.396 12.521,120.167 12.568 C 119.415 12.719,118.128 13.103,115.083 14.081 C 110.875 15.434,103.885 17.819,102.917 18.232 C 102.642 18.349,101.479 18.804,100.333 19.242 C 98.199 20.057,96.266 20.830,95.083 21.340 C 94.717 21.498,93.879 21.861,93.222 22.147 C 92.565 22.433,91.969 22.667,91.898 22.667 C 91.615 22.667,85.345 25.595,80.417 28.029 C 78.651 28.901,73.922 31.361,73.750 31.497 C 73.658 31.569,72.833 32.020,71.917 32.499 C 71.000 32.978,70.137 33.463,70.000 33.575 C 69.862 33.688,68.850 34.295,67.750 34.924 C 66.650 35.554,65.337 36.345,64.833 36.682 C 64.329 37.020,63.654 37.438,63.333 37.610 C 63.012 37.783,61.962 38.449,61.000 39.091 C 60.038 39.732,59.054 40.356,58.814 40.478 C 58.575 40.599,58.200 40.864,57.981 41.066 C 57.555 41.459,55.575 42.833,55.433 42.833 C 55.354 42.833,53.740 44.018,51.231 45.917 C 50.625 46.375,49.624 47.125,49.005 47.583 C 48.386 48.042,47.401 48.809,46.815 49.287 C 45.411 50.436,45.392 50.451,44.244 51.417 C 43.699 51.875,43.070 52.400,42.846 52.583 C 37.512 56.956,29.462 65.147,24.417 71.333 C 23.781 72.112,23.128 72.895,22.964 73.073 C 22.800 73.251,22.667 73.453,22.667 73.523 C 22.667 73.592,22.305 74.085,21.863 74.616 C 21.422 75.148,20.785 75.996,20.449 76.500 C 20.113 77.004,19.734 77.529,19.607 77.667 C 19.480 77.804,18.732 78.892,17.945 80.083 C 17.158 81.275,16.380 82.433,16.216 82.656 C 16.051 82.880,15.654 83.526,15.333 84.091 C 15.012 84.657,14.328 85.824,13.812 86.685 C 11.906 89.862,8.187 97.351,7.588 99.216 C 7.464 99.601,6.991 100.817,6.537 101.917 C 6.082 103.017,5.542 104.479,5.335 105.167 C 5.129 105.854,4.825 106.829,4.660 107.333 C 3.706 110.246,2.767 113.665,2.574 114.931 C 2.519 115.290,2.258 116.671,1.994 118.000 C 0.738 124.316,0.418 127.782,0.424 135.000 C 0.431 142.312,0.779 146.067,2.015 152.167 C 2.284 153.496,2.540 154.860,2.583 155.199 C 2.682 155.977,3.356 158.517,4.123 160.998 C 4.449 162.053,4.817 163.289,4.941 163.744 C 5.278 164.980,6.525 168.334,7.202 169.826 C 7.388 170.234,7.562 170.684,7.590 170.826 C 7.618 170.968,7.653 171.083,7.667 171.083 C 7.681 171.083,7.715 171.201,7.744 171.345 C 7.772 171.489,8.329 172.719,8.981 174.078 C 9.633 175.438,10.167 176.609,10.167 176.681 C 10.167 176.753,10.628 177.660,11.192 178.697 C 11.756 179.735,12.469 181.059,12.777 181.641 C 13.085 182.222,13.655 183.215,14.043 183.847 C 14.432 184.479,14.901 185.278,15.086 185.623 C 15.599 186.580,18.975 191.654,19.414 192.128 C 19.627 192.357,19.902 192.741,20.025 192.981 C 20.149 193.221,20.781 194.092,21.431 194.917 C 22.081 195.742,22.644 196.493,22.681 196.586 C 22.846 196.991,27.270 202.262,29.228 204.386 C 31.289 206.622,37.808 213.152,38.824 214.000 C 39.319 214.412,40.029 215.040,40.402 215.395 C 40.775 215.749,41.447 216.349,41.895 216.728 C 42.344 217.107,42.794 217.496,42.897 217.592 C 42.999 217.688,43.533 218.130,44.083 218.573 C 44.633 219.016,45.196 219.481,45.333 219.606 C 45.762 219.996,47.185 221.113,48.833 222.355 C 49.704 223.010,50.544 223.667,50.700 223.815 C 51.235 224.321,51.486 224.500,51.660 224.500 C 51.755 224.500,51.833 224.575,51.833 224.667 C 51.833 224.758,51.922 224.833,52.031 224.833 C 52.140 224.833,52.571 225.120,52.989 225.471 C 53.738 226.099,56.448 228.000,56.595 228.000 C 56.636 228.000,56.898 228.206,57.177 228.458 C 57.456 228.710,57.902 229.036,58.167 229.183 C 59.371 229.847,60.500 230.582,60.500 230.702 C 60.500 230.774,60.578 230.833,60.674 230.833 C 60.769 230.833,61.004 230.980,61.196 231.158 C 61.388 231.337,61.816 231.612,62.148 231.769 C 62.479 231.926,63.384 232.467,64.159 232.971 C 64.934 233.476,65.661 233.889,65.775 233.889 C 65.888 233.889,65.967 233.967,65.949 234.062 C 65.931 234.157,66.010 234.248,66.125 234.263 C 66.240 234.279,66.390 234.310,66.458 234.332 C 66.527 234.355,66.640 234.364,66.708 234.353 C 66.777 234.342,66.833 234.403,66.833 234.488 C 66.833 234.573,67.060 234.755,67.336 234.893 C 67.613 235.031,67.796 235.075,67.744 234.991 C 67.692 234.906,67.765 234.882,67.907 234.936 C 68.049 234.990,68.129 235.094,68.084 235.165 C 68.040 235.237,68.115 235.388,68.252 235.502 C 68.456 235.671,68.500 235.655,68.500 235.412 C 68.500 235.121,69.047 235.584,69.200 236.003 C 69.227 236.079,69.356 236.166,69.486 236.196 C 69.616 236.226,69.860 236.381,70.028 236.542 C 70.196 236.702,70.465 236.831,70.625 236.827 C 70.848 236.823,70.818 236.765,70.500 236.583 C 70.271 236.452,70.175 236.342,70.286 236.339 C 70.398 236.336,70.751 236.596,71.072 236.917 C 71.631 237.475,72.068 237.734,71.696 237.285 C 71.508 237.058,72.847 235.950,74.251 235.171 C 74.617 234.967,75.067 234.667,75.250 234.504 C 75.433 234.341,76.521 233.586,77.667 232.826 C 78.813 232.066,80.007 231.222,80.321 230.951 C 80.635 230.680,81.123 230.362,81.405 230.244 C 81.686 230.126,82.217 229.788,82.583 229.491 C 82.950 229.195,83.962 228.484,84.833 227.912 C 85.704 227.340,86.933 226.488,87.564 226.019 C 88.196 225.550,88.788 225.167,88.881 225.167 C 88.973 225.167,89.357 224.916,89.733 224.611 C 90.109 224.305,91.452 223.363,92.717 222.518 C 93.983 221.673,95.151 220.849,95.313 220.687 C 95.476 220.524,95.945 220.228,96.356 220.030 C 96.766 219.831,97.264 219.517,97.462 219.333 C 98.052 218.783,99.706 217.667,99.930 217.667 C 100.045 217.667,100.164 217.607,100.194 217.533 C 100.225 217.460,100.775 217.030,101.417 216.578 C 102.058 216.125,102.729 215.623,102.906 215.461 C 103.084 215.299,103.313 215.167,103.415 215.167 C 103.589 215.167,104.982 214.226,105.167 213.985 C 105.212 213.925,105.737 213.568,106.333 213.191 C 106.929 212.815,107.497 212.440,107.596 212.358 C 107.694 212.275,108.313 211.850,108.971 211.413 C 109.628 210.976,110.167 210.559,110.167 210.487 C 110.167 210.415,110.335 210.303,110.542 210.238 C 110.992 210.098,112.174 209.311,113.059 208.564 C 113.413 208.265,113.958 207.900,114.272 207.751 C 114.585 207.602,115.326 207.114,115.918 206.666 C 116.944 205.889,117.285 205.788,117.876 206.086 C 117.990 206.144,117.858 205.996,117.583 205.758 C 116.982 205.238,116.218 204.833,115.837 204.833 C 115.509 204.833,114.259 203.936,114.229 203.679 C 114.184 203.288,114.157 203.258,114.032 203.455 C 113.934 203.608,113.767 203.565,113.370 203.288 C 112.900 202.959,112.575 202.488,113.000 202.750 C 113.092 202.807,113.167 202.774,113.167 202.677 C 113.167 202.579,113.035 202.500,112.873 202.500 C 112.712 202.500,112.483 202.344,112.363 202.153 C 112.236 201.948,112.044 201.845,111.898 201.901 C 111.754 201.956,111.693 201.925,111.754 201.827 C 111.870 201.639,111.202 201.014,110.875 201.006 C 110.760 201.002,110.667 200.923,110.667 200.829 C 110.667 200.735,110.479 200.587,110.250 200.500 C 110.021 200.413,109.833 200.265,109.833 200.171 C 109.833 200.077,109.734 200.000,109.613 200.000 C 109.492 200.000,109.237 199.831,109.047 199.625 C 108.429 198.957,107.807 198.496,107.652 198.593 C 107.568 198.644,107.498 198.588,107.495 198.468 C 107.493 198.348,107.139 197.950,106.710 197.583 C 106.280 197.217,105.543 196.560,105.073 196.125 C 104.603 195.690,104.127 195.333,104.016 195.333 C 103.905 195.333,103.860 195.258,103.917 195.167 C 103.973 195.075,103.942 195.000,103.847 195.000 C 103.498 195.000,97.694 189.046,95.317 186.250 C 95.006 185.883,94.675 185.528,94.584 185.461 C 94.492 185.394,94.469 185.337,94.534 185.336 C 94.598 185.334,94.459 185.127,94.224 184.875 C 93.990 184.623,93.352 183.817,92.806 183.083 C 92.260 182.350,91.670 181.563,91.493 181.333 C 90.842 180.488,89.833 179.023,89.833 178.923 C 89.833 178.822,89.172 177.833,88.994 177.667 C 88.786 177.473,87.333 175.023,87.333 174.866 C 87.333 174.772,87.277 174.669,87.208 174.639 C 87.140 174.608,86.900 174.208,86.675 173.750 C 86.451 173.292,86.168 172.796,86.047 172.649 C 85.664 172.186,82.554 165.212,82.420 164.516 C 82.392 164.370,82.094 163.425,81.759 162.417 C 78.673 153.132,78.203 144.474,80.178 133.250 C 80.459 131.654,82.235 125.759,82.852 124.377 C 83.025 123.988,83.167 123.627,83.167 123.575 C 83.167 123.523,83.474 122.828,83.850 122.031 C 84.226 121.235,84.678 120.220,84.854 119.776 C 85.145 119.043,86.030 117.330,86.333 116.917 C 86.400 116.825,86.767 116.162,87.148 115.443 C 87.530 114.725,88.318 113.412,88.900 112.527 C 89.481 111.641,90.041 110.754,90.144 110.555 C 90.247 110.356,90.429 110.093,90.548 109.971 C 90.667 109.850,91.135 109.225,91.588 108.583 C 96.131 102.153,103.254 94.969,110.903 89.101 C 111.720 88.474,112.470 87.895,112.570 87.815 C 113.027 87.445,115.518 85.664,116.417 85.063 C 116.967 84.696,118.054 83.961,118.833 83.430 C 119.612 82.900,120.513 82.329,120.833 82.163 C 121.154 81.996,122.049 81.441,122.822 80.930 C 123.594 80.418,124.282 80.000,124.349 80.000 C 124.417 80.000,125.322 79.498,126.361 78.884 C 128.642 77.536,130.590 76.503,134.667 74.482 C 137.405 73.125,138.680 72.538,143.250 70.529 C 146.037 69.304,152.111 66.975,153.833 66.470 C 154.154 66.376,154.492 66.243,154.583 66.175 C 155.110 65.783,164.067 63.067,169.917 61.525 C 176.393 59.817,186.083 57.725,188.917 57.423 C 189.467 57.364,190.742 57.172,191.750 56.995 C 196.534 56.159,203.937 55.214,207.417 54.996 C 208.792 54.909,212.092 54.686,214.750 54.498 C 224.508 53.810,244.785 53.941,252.833 54.744 C 253.246 54.785,254.446 54.860,255.500 54.910 C 259.146 55.085,264.253 55.581,269.333 56.254 C 271.496 56.541,271.599 56.555,274.583 57.013 C 275.775 57.196,277.387 57.417,278.167 57.503 C 279.645 57.668,284.656 58.588,287.267 59.175 C 288.102 59.363,289.002 59.542,289.267 59.572 C 289.533 59.603,289.750 59.647,289.750 59.669 C 289.750 59.691,289.900 59.730,290.083 59.756 C 291.191 59.911,292.084 60.112,295.000 60.862 C 296.787 61.322,298.400 61.720,298.583 61.746 C 298.767 61.773,299.029 61.838,299.167 61.892 C 299.304 61.946,299.604 62.023,299.833 62.063 C 300.399 62.162,302.237 62.693,304.250 63.340 C 305.167 63.635,306.067 63.887,306.250 63.901 C 306.433 63.914,306.752 64.020,306.958 64.135 C 307.261 64.305,307.334 64.304,307.338 64.131 C 307.341 64.001,307.409 64.029,307.510 64.202 C 307.601 64.358,307.955 64.537,308.296 64.598 C 308.637 64.660,309.010 64.785,309.125 64.875 C 309.240 64.966,309.333 64.994,309.333 64.938 C 309.333 64.881,309.715 64.980,310.181 65.157 C 310.647 65.334,311.147 65.433,311.291 65.378 C 311.459 65.313,311.513 65.344,311.441 65.461 C 311.365 65.584,311.467 65.620,311.747 65.570 C 312.019 65.520,312.167 65.570,312.167 65.710 C 312.167 65.829,312.392 66.012,312.667 66.116 C 313.292 66.352,313.313 66.257,312.708 65.929 C 312.004 65.546,312.498 65.621,313.577 66.060 C 314.109 66.276,314.615 66.581,314.702 66.736 C 314.835 66.973,314.904 66.983,315.129 66.801 C 315.280 66.679,315.347 66.667,315.283 66.773 C 315.215 66.888,315.395 67.071,315.735 67.232 C 316.388 67.542,316.561 67.567,316.417 67.333 C 316.360 67.242,316.393 67.167,316.490 67.167 C 316.587 67.167,316.667 67.241,316.667 67.331 C 316.667 67.478,317.128 67.718,318.301 68.181 C 318.552 68.280,318.650 68.274,318.583 68.166 C 318.527 68.075,318.377 68.000,318.250 68.000 C 318.123 68.000,317.985 67.944,317.943 67.875 C 317.901 67.806,318.154 67.747,318.505 67.742 C 319.003 67.736,319.355 67.568,320.113 66.973 C 320.647 66.554,321.721 65.798,322.500 65.293 C 323.279 64.787,324.433 63.990,325.064 63.520 C 325.696 63.051,326.288 62.667,326.381 62.667 C 326.473 62.667,326.857 62.416,327.233 62.111 C 327.609 61.805,328.952 60.863,330.217 60.018 C 331.483 59.173,332.651 58.349,332.813 58.187 C 332.976 58.024,333.445 57.728,333.856 57.530 C 334.266 57.331,334.764 57.017,334.962 56.833 C 335.552 56.283,337.206 55.167,337.430 55.167 C 337.545 55.167,337.664 55.107,337.694 55.033 C 337.725 54.960,338.275 54.530,338.917 54.078 C 339.558 53.625,340.229 53.123,340.406 52.961 C 340.584 52.799,340.813 52.667,340.915 52.667 C 341.089 52.667,342.482 51.726,342.667 51.485 C 342.712 51.425,343.238 51.068,343.833 50.691 C 344.429 50.315,344.992 49.945,345.083 49.870 C 345.175 49.795,345.738 49.409,346.333 49.012 C 346.929 48.615,347.492 48.202,347.583 48.096 C 347.810 47.832,349.114 47.170,349.213 47.268 C 349.256 47.312,349.338 47.228,349.394 47.082 C 349.453 46.928,349.427 46.859,349.331 46.918 C 349.241 46.974,349.164 46.921,349.160 46.802 C 349.152 46.521,347.867 45.626,347.658 45.755 C 347.571 45.809,347.500 45.769,347.500 45.667 C 347.500 45.564,347.426 45.526,347.335 45.582 C 347.244 45.638,347.211 45.579,347.260 45.450 C 347.312 45.315,347.170 45.098,346.925 44.937 C 346.691 44.784,346.500 44.736,346.500 44.829 C 346.500 44.923,346.417 45.000,346.316 45.000 C 346.214 45.000,346.174 44.888,346.227 44.750 C 346.280 44.613,346.231 44.491,346.120 44.481 C 346.008 44.470,345.807 44.451,345.672 44.439 C 345.538 44.427,345.343 44.247,345.239 44.039 C 345.135 43.831,344.989 43.606,344.915 43.539 C 344.841 43.472,344.834 43.510,344.900 43.625 C 344.966 43.740,344.958 43.833,344.883 43.833 C 344.807 43.833,344.669 43.665,344.575 43.458 C 344.481 43.252,344.313 43.102,344.202 43.125 C 344.091 43.148,344.000 43.054,344.000 42.917 C 344.000 42.779,343.896 42.667,343.770 42.667 C 343.643 42.667,343.062 42.293,342.478 41.837 C 341.894 41.380,341.348 41.005,341.263 41.003 C 341.179 41.001,340.981 40.883,340.823 40.741 C 340.666 40.599,340.387 40.471,340.204 40.457 C 340.020 40.443,339.904 40.344,339.945 40.237 C 339.986 40.130,339.894 39.995,339.741 39.936 C 339.358 39.789,337.096 38.279,337.028 38.125 C 336.997 38.056,336.871 38.000,336.748 38.000 C 336.625 38.000,336.406 37.882,336.262 37.738 C 336.118 37.594,336.000 37.518,336.000 37.569 C 336.000 37.621,335.381 37.243,334.625 36.730 C 333.869 36.217,333.098 35.738,332.912 35.666 C 332.726 35.595,331.582 34.930,330.370 34.189 C 329.158 33.448,328.167 32.889,328.167 32.947 C 328.167 33.005,328.017 32.916,327.833 32.750 C 327.650 32.584,327.499 32.516,327.497 32.599 C 327.496 32.682,327.440 32.675,327.372 32.583 C 327.229 32.388,326.378 31.893,324.750 31.057 C 324.108 30.727,323.546 30.402,323.500 30.335 C 323.454 30.267,323.229 30.153,323.000 30.082 C 322.771 30.010,321.740 29.480,320.708 28.903 C 319.677 28.327,318.833 27.885,318.833 27.922 C 318.833 27.959,317.487 27.317,315.841 26.495 C 314.195 25.673,312.777 25.000,312.691 25.000 C 312.605 25.000,311.796 24.635,310.893 24.189 C 309.989 23.742,308.837 23.212,308.333 23.009 C 307.829 22.807,306.629 22.305,305.667 21.894 C 304.704 21.483,303.317 20.917,302.583 20.637 C 301.850 20.356,300.125 19.682,298.750 19.137 C 295.051 17.673,294.593 17.500,294.413 17.499 C 294.324 17.499,292.974 17.021,291.414 16.438 C 288.976 15.526,288.256 15.289,287.250 15.070 C 287.158 15.050,285.471 14.501,283.501 13.850 C 281.531 13.199,279.834 12.667,279.730 12.667 C 279.626 12.667,277.856 12.183,275.797 11.591 C 273.738 11.000,271.498 10.393,270.818 10.242 C 270.139 10.092,267.667 9.495,265.324 8.917 C 261.412 7.950,260.520 7.752,259.331 7.585 C 259.101 7.552,256.851 7.114,254.331 6.610 C 249.986 5.741,245.980 5.044,245.250 5.031 C 245.067 5.027,243.454 4.799,241.667 4.524 C 235.505 3.576,228.247 2.727,225.083 2.585 C 223.983 2.536,222.708 2.459,222.250 2.414 C 215.538 1.756,201.348 1.377,192.250 1.613 M348.924 46.678 C 349.100 46.964,348.942 46.992,348.593 46.736 C 348.323 46.539,348.314 46.500,348.542 46.500 C 348.691 46.500,348.863 46.580,348.924 46.678 M349.773 47.417 C 349.826 47.554,349.943 47.667,350.034 47.667 C 350.124 47.667,350.435 47.823,350.724 48.014 L 351.250 48.362 350.833 48.006 C 349.737 47.067,349.612 46.998,349.773 47.417 M353.391 50.139 C 353.543 50.306,353.613 50.498,353.547 50.564 C 353.481 50.630,353.557 50.634,353.717 50.573 C 353.981 50.471,353.975 50.434,353.645 50.148 C 353.182 49.746,353.032 49.741,353.391 50.139 M365.167 60.630 C 365.167 60.750,365.412 60.980,366.250 61.644 C 366.433 61.789,366.287 61.591,365.925 61.204 C 365.237 60.469,365.167 60.416,365.167 60.630 M322.500 69.868 C 322.721 70.099,323.323 70.318,323.399 70.195 C 323.447 70.118,323.395 70.052,323.284 70.048 C 323.174 70.043,322.933 69.981,322.750 69.910 C 322.567 69.839,322.454 69.820,322.500 69.868 M325.333 71.241 C 325.333 71.287,325.558 71.441,325.833 71.583 C 326.108 71.726,326.333 71.804,326.333 71.759 C 326.333 71.713,326.108 71.559,325.833 71.417 C 325.558 71.274,325.333 71.196,325.333 71.241 M326.833 71.984 C 326.833 72.123,327.517 72.372,327.618 72.270 C 327.646 72.243,327.480 72.135,327.251 72.031 C 327.021 71.926,326.833 71.905,326.833 71.984 M351.333 88.385 C 351.333 88.414,351.577 88.658,351.875 88.927 L 352.417 89.417 351.927 88.875 C 351.471 88.370,351.333 88.257,351.333 88.385 M114.500 203.833 C 114.500 203.925,114.596 204.000,114.713 204.000 C 114.830 204.000,115.054 204.150,115.211 204.333 C 115.368 204.517,115.583 204.667,115.688 204.667 C 115.793 204.667,115.596 204.442,115.250 204.167 C 114.557 203.616,114.500 203.590,114.500 203.833 " stroke="none" fill="" fill-rule="evenodd"></path><path id="path1" d="M164.529 196.665 L 164.568 309.000 198.645 309.000 L 232.722 309.000 232.609 276.588 C 232.547 258.762,232.547 238.999,232.609 232.672 L 232.721 221.167 242.486 221.169 C 254.200 221.172,254.968 221.295,257.676 223.607 C 258.153 224.014,258.853 224.561,259.230 224.823 C 260.403 225.636,263.712 229.292,264.739 230.909 C 265.310 231.809,266.877 233.909,267.170 234.167 C 267.877 234.788,271.340 240.429,273.413 244.333 C 274.313 246.029,275.648 248.542,276.380 249.917 C 277.113 251.292,278.264 253.456,278.939 254.726 C 279.614 255.996,280.168 257.158,280.170 257.309 C 280.171 257.460,280.505 258.183,280.912 258.917 C 281.318 259.650,282.113 261.150,282.677 262.250 C 283.242 263.350,283.834 264.438,283.993 264.667 C 284.152 264.896,284.752 266.020,285.325 267.165 C 285.899 268.310,286.513 269.450,286.690 269.699 C 286.866 269.947,287.189 270.553,287.407 271.045 C 287.624 271.537,288.157 272.572,288.591 273.345 C 289.025 274.118,289.843 275.650,290.410 276.750 C 290.977 277.850,291.628 279.050,291.857 279.417 C 292.086 279.783,292.501 280.571,292.779 281.167 C 293.057 281.762,293.667 282.911,294.134 283.718 C 294.602 284.526,295.032 285.339,295.092 285.526 C 295.151 285.713,295.654 286.665,296.208 287.642 C 296.763 288.618,297.326 289.677,297.459 289.995 C 297.593 290.313,298.219 291.486,298.851 292.603 C 299.483 293.719,300.000 294.687,300.000 294.753 C 300.000 294.820,300.563 295.871,301.250 297.089 C 301.938 298.307,302.500 299.359,302.500 299.428 C 302.500 299.496,302.956 300.370,303.513 301.370 C 304.070 302.369,304.939 303.989,305.445 304.968 C 305.951 305.948,306.620 307.172,306.932 307.688 C 307.245 308.205,307.500 308.711,307.500 308.813 C 307.500 308.951,317.733 309.000,346.083 309.000 C 378.510 309.000,384.667 308.964,384.667 308.773 C 384.667 308.649,384.473 308.261,384.237 307.913 C 384.000 307.564,383.241 306.297,382.550 305.098 C 381.858 303.898,381.200 302.804,381.086 302.667 C 380.972 302.529,380.367 301.517,379.742 300.417 C 379.117 299.317,378.357 298.052,378.053 297.606 C 377.749 297.161,377.500 296.731,377.500 296.652 C 377.500 296.573,377.009 295.714,376.408 294.743 C 375.808 293.771,375.098 292.572,374.830 292.078 C 374.563 291.584,374.000 290.633,373.579 289.965 C 372.760 288.666,371.008 285.731,369.917 283.830 C 369.550 283.192,368.939 282.162,368.558 281.541 C 368.177 280.921,367.623 279.964,367.327 279.415 C 367.030 278.866,366.620 278.191,366.416 277.915 C 366.211 277.639,365.649 276.701,365.168 275.831 C 364.686 274.962,363.963 273.741,363.561 273.118 C 363.160 272.496,362.605 271.558,362.328 271.035 C 362.052 270.512,361.488 269.558,361.075 268.917 C 360.662 268.275,360.129 267.375,359.890 266.917 C 359.650 266.458,359.138 265.596,358.751 265.000 C 358.364 264.404,357.764 263.392,357.417 262.750 C 357.070 262.108,356.468 261.096,356.080 260.500 C 355.692 259.904,355.243 259.154,355.082 258.833 C 354.921 258.512,354.331 257.514,353.770 256.616 C 353.209 255.717,352.610 254.704,352.439 254.366 C 352.269 254.027,351.650 252.985,351.064 252.051 C 350.479 251.116,350.000 250.312,350.000 250.265 C 350.000 250.143,348.491 247.635,348.235 247.333 C 348.119 247.196,347.791 246.633,347.507 246.083 C 347.222 245.533,346.598 244.451,346.120 243.679 C 345.641 242.906,344.988 241.808,344.667 241.239 C 343.930 239.931,342.424 237.416,341.057 235.210 C 340.476 234.272,340.000 233.455,340.000 233.395 C 340.000 233.216,338.628 231.088,338.474 231.028 C 338.345 230.977,337.946 230.321,335.870 226.750 C 334.304 224.055,331.195 220.753,328.458 218.879 C 327.840 218.455,327.333 218.009,327.333 217.887 C 327.333 217.766,327.270 217.667,327.192 217.667 C 327.114 217.667,326.383 217.243,325.567 216.725 C 323.699 215.540,318.911 213.319,316.000 212.287 C 315.587 212.141,314.162 211.616,312.833 211.120 C 311.504 210.624,309.195 209.813,307.703 209.318 C 304.603 208.291,304.589 208.346,308.083 207.831 C 310.873 207.419,314.524 206.584,317.167 205.754 C 318.129 205.452,319.554 205.011,320.333 204.775 C 321.112 204.539,322.500 204.038,323.417 203.661 C 324.333 203.284,325.496 202.826,326.000 202.643 C 327.409 202.130,333.381 199.104,334.658 198.256 C 335.283 197.840,335.873 197.500,335.968 197.500 C 336.063 197.500,336.466 197.252,336.862 196.950 C 337.259 196.647,338.159 196.011,338.863 195.536 C 343.305 192.539,347.978 188.067,351.595 183.351 C 352.758 181.834,355.000 178.512,355.000 178.305 C 355.000 178.211,355.141 177.936,355.313 177.692 C 355.791 177.016,357.269 174.303,357.416 173.833 C 357.487 173.604,357.770 172.929,358.045 172.333 C 362.662 162.312,364.378 148.665,362.749 134.917 C 362.235 130.584,361.703 128.183,360.235 123.562 C 359.502 121.256,359.107 120.252,358.015 117.917 C 357.758 117.367,357.417 116.617,357.257 116.250 C 354.723 110.435,346.248 100.666,340.926 97.425 C 340.617 97.237,339.927 96.775,339.391 96.397 C 337.775 95.259,333.675 92.919,331.823 92.077 C 330.866 91.642,329.998 91.220,329.894 91.139 C 329.691 90.980,325.328 89.297,323.000 88.479 C 320.258 87.515,313.578 85.860,310.333 85.341 C 304.108 84.345,310.118 84.421,233.953 84.373 L 164.490 84.329 164.529 196.665 M278.347 133.653 C 281.677 134.266,283.659 135.034,286.067 136.646 C 292.012 140.623,294.296 147.858,292.589 157.296 C 291.949 160.833,289.102 165.243,286.250 167.115 C 285.883 167.355,285.390 167.683,285.153 167.844 C 283.079 169.249,279.091 170.574,275.671 170.993 C 274.763 171.105,266.947 171.167,253.796 171.167 L 233.333 171.167 233.333 152.250 L 233.333 133.333 254.972 133.333 C 275.587 133.333,276.692 133.348,278.347 133.653 " stroke="none" fill="" fill-rule="evenodd"></path><path id="path2" d="M397.665 121.347 C 397.663 121.749,396.976 122.333,395.993 122.768 C 395.760 122.871,395.449 123.075,395.301 123.222 C 395.154 123.369,394.033 124.159,392.809 124.977 C 391.585 125.795,390.358 126.660,390.083 126.899 C 389.808 127.138,389.264 127.485,388.873 127.669 C 388.483 127.853,388.021 128.145,387.848 128.319 C 387.674 128.492,386.494 129.325,385.225 130.170 C 383.955 131.015,382.767 131.840,382.583 132.004 C 382.400 132.167,381.950 132.467,381.583 132.669 C 381.217 132.872,380.372 133.447,379.706 133.946 C 379.040 134.446,378.328 134.944,378.123 135.053 C 376.417 135.955,374.414 137.833,375.156 137.833 C 375.376 137.833,375.479 138.903,375.273 139.034 C 375.138 139.120,375.140 139.289,375.279 139.659 C 375.385 139.938,375.413 140.167,375.343 140.167 C 375.272 140.167,375.222 140.384,375.232 140.650 C 375.242 140.916,375.291 141.109,375.341 141.078 C 375.391 141.048,375.428 142.743,375.424 144.845 C 375.420 146.947,375.379 148.666,375.333 148.667 C 375.287 148.667,375.241 149.361,375.231 150.208 C 375.198 152.805,374.914 155.754,374.425 158.583 C 374.393 158.767,374.314 159.217,374.250 159.583 C 374.185 159.950,373.800 161.705,373.394 163.482 C 372.989 165.260,372.620 166.950,372.574 167.238 C 372.528 167.526,372.183 168.659,371.806 169.756 C 371.430 170.853,370.880 172.463,370.585 173.333 C 370.008 175.034,369.687 175.793,368.614 177.990 C 368.237 178.763,367.907 179.528,367.883 179.690 C 367.858 179.851,367.289 180.943,366.618 182.117 C 365.947 183.290,365.299 184.494,365.179 184.792 C 365.058 185.090,364.894 185.333,364.813 185.333 C 364.733 185.333,364.667 185.396,364.667 185.473 C 364.667 185.590,364.225 186.287,362.288 189.227 C 362.024 189.628,361.231 190.681,360.960 190.990 C 360.845 191.123,360.600 191.474,360.417 191.771 C 360.004 192.441,358.277 194.537,357.144 195.743 C 356.678 196.239,356.187 196.801,356.054 196.992 C 355.921 197.182,354.973 198.180,353.947 199.210 C 352.273 200.893,351.126 201.950,349.091 203.687 C 348.728 203.997,348.242 204.456,348.012 204.708 C 347.781 204.960,347.526 205.167,347.445 205.167 C 347.284 205.167,346.142 206.042,345.594 206.585 C 345.254 206.922,341.598 209.594,341.035 209.917 C 340.876 210.008,340.483 210.277,340.164 210.514 C 339.845 210.751,339.208 211.157,338.750 211.416 C 338.292 211.675,337.698 212.067,337.432 212.288 C 337.165 212.509,336.602 212.849,336.182 213.044 C 335.761 213.239,335.379 213.450,335.333 213.514 C 335.252 213.626,333.706 214.528,332.283 215.293 C 331.898 215.500,331.601 215.741,331.623 215.829 C 331.645 215.916,331.570 215.953,331.456 215.910 C 331.343 215.867,330.837 216.057,330.333 216.333 C 329.829 216.609,328.939 217.066,328.354 217.347 L 327.292 217.859 328.646 218.766 C 329.391 219.265,330.000 219.741,330.000 219.825 C 330.000 219.909,330.156 220.027,330.346 220.087 C 330.537 220.148,331.323 220.828,332.093 221.598 L 333.493 222.998 334.122 222.649 C 334.467 222.458,334.900 222.166,335.083 222.001 C 335.267 221.836,336.354 221.081,337.500 220.322 C 338.646 219.563,339.832 218.729,340.135 218.467 C 340.439 218.206,341.017 217.837,341.419 217.648 C 341.821 217.459,342.323 217.136,342.533 216.929 C 342.744 216.723,343.967 215.856,345.250 215.003 C 346.533 214.150,347.621 213.396,347.667 213.328 C 347.712 213.259,348.214 212.931,348.782 212.599 C 349.350 212.267,349.912 211.900,350.032 211.783 C 350.442 211.384,352.264 210.167,352.452 210.167 C 352.555 210.167,352.664 210.105,352.694 210.030 C 352.725 209.955,353.200 209.588,353.750 209.215 C 354.300 208.842,354.927 208.381,355.144 208.191 C 355.361 208.000,355.859 207.689,356.252 207.499 C 356.644 207.309,357.167 206.967,357.413 206.739 C 358.019 206.178,359.534 205.167,359.769 205.167 C 359.874 205.167,360.060 205.045,360.183 204.897 C 360.409 204.624,362.416 203.197,363.436 202.583 C 363.740 202.400,364.601 201.805,365.349 201.261 C 366.096 200.716,366.921 200.154,367.181 200.011 C 367.441 199.867,368.276 199.300,369.035 198.750 C 369.795 198.200,370.491 197.720,370.583 197.683 C 370.798 197.597,372.366 196.495,373.333 195.752 C 373.746 195.434,374.174 195.173,374.286 195.171 C 374.397 195.168,374.735 194.956,375.036 194.698 C 375.586 194.228,377.795 192.667,377.911 192.667 C 377.945 192.667,378.518 192.292,379.183 191.833 C 379.848 191.375,380.482 191.000,380.591 191.000 C 380.800 191.000,381.667 189.794,381.667 189.504 C 381.667 189.410,381.740 189.333,381.829 189.333 C 382.059 189.333,382.471 188.463,382.372 188.185 C 382.327 188.058,382.359 187.996,382.443 188.048 C 382.527 188.100,382.936 187.642,383.353 187.029 C 384.187 185.805,384.458 185.243,384.123 185.433 C 384.010 185.497,384.174 185.313,384.488 185.025 C 384.803 184.736,384.975 184.500,384.871 184.500 C 384.768 184.500,384.869 184.299,385.097 184.053 C 385.337 183.794,385.471 183.497,385.414 183.349 C 385.360 183.209,385.371 183.149,385.439 183.217 C 385.611 183.389,386.578 181.830,386.572 181.393 C 386.568 181.139,386.641 181.064,386.825 181.132 C 387.049 181.216,387.053 181.191,386.851 180.944 C 386.652 180.699,386.654 180.672,386.863 180.753 C 387.129 180.854,387.576 180.091,387.409 179.821 C 387.357 179.736,387.388 179.667,387.479 179.667 C 387.569 179.667,387.968 179.010,388.363 178.208 C 388.759 177.406,389.125 176.713,389.177 176.667 C 389.229 176.621,389.450 176.133,389.668 175.583 C 389.887 175.033,390.416 173.871,390.843 173.000 C 391.510 171.642,391.853 170.842,391.915 170.500 C 391.924 170.454,392.060 170.174,392.219 169.877 C 392.377 169.580,392.493 169.317,392.477 169.293 C 392.425 169.218,392.854 167.955,393.256 167.000 C 393.929 165.401,394.665 163.276,394.815 162.500 C 394.894 162.087,395.374 160.325,395.880 158.583 C 396.386 156.842,396.836 155.143,396.880 154.809 C 396.923 154.475,397.002 154.132,397.054 154.047 C 397.107 153.962,397.168 153.579,397.191 153.196 C 397.213 152.813,397.273 152.500,397.324 152.500 C 397.375 152.500,397.422 152.294,397.428 152.042 C 397.440 151.565,397.569 150.674,397.832 149.250 C 398.904 143.460,399.340 130.394,398.596 126.386 C 398.514 125.946,398.354 124.863,398.244 124.000 C 397.941 121.618,397.670 120.376,397.665 121.347 M374.736 198.725 C 374.679 198.875,374.553 198.949,374.457 198.890 C 374.359 198.830,374.331 198.861,374.393 198.961 C 374.453 199.059,374.305 199.296,374.062 199.487 C 373.774 199.714,373.709 199.833,373.874 199.833 C 374.154 199.833,375.090 198.702,374.937 198.549 C 374.884 198.496,374.794 198.575,374.736 198.725 M372.449 201.422 C 372.192 201.648,372.048 201.833,372.128 201.833 C 372.209 201.833,372.451 201.646,372.667 201.417 C 373.165 200.886,373.055 200.889,372.449 201.422 M371.340 202.792 C 371.127 203.044,370.839 203.381,370.700 203.542 C 370.175 204.150,370.643 203.801,371.315 203.083 C 371.702 202.671,371.953 202.333,371.873 202.333 C 371.792 202.333,371.553 202.540,371.340 202.792 M369.862 204.386 C 369.663 204.598,369.500 204.828,369.500 204.898 C 369.500 205.029,369.751 204.792,370.145 204.291 C 370.476 203.870,370.287 203.933,369.862 204.386 M367.500 206.917 C 367.285 207.146,367.188 207.333,367.285 207.333 C 367.382 207.333,367.585 207.146,367.735 206.917 C 367.885 206.688,367.982 206.500,367.950 206.500 C 367.918 206.500,367.715 206.688,367.500 206.917 M164.580 242.583 C 164.580 251.017,164.600 254.491,164.625 250.304 C 164.650 246.117,164.650 239.217,164.625 234.971 C 164.600 230.724,164.580 234.150,164.580 242.583 M262.667 234.598 C 259.107 235.001,257.278 235.152,254.750 235.252 C 253.925 235.284,252.650 235.352,251.917 235.402 C 251.183 235.452,250.077 235.508,249.458 235.527 C 248.840 235.546,248.333 235.604,248.333 235.656 C 248.333 235.708,247.639 235.756,246.792 235.763 C 245.164 235.777,240.642 235.945,240.500 235.996 C 240.454 236.013,239.929 236.030,239.333 236.035 C 238.725 236.039,238.196 236.125,238.128 236.230 C 238.055 236.340,238.004 236.347,238.003 236.247 C 238.000 236.100,234.815 236.029,233.125 236.137 L 232.667 236.167 232.667 251.502 L 232.667 266.837 233.375 266.742 C 233.765 266.690,234.571 266.580,235.167 266.498 C 235.762 266.416,236.925 266.266,237.750 266.164 C 238.575 266.063,239.625 265.913,240.083 265.832 C 240.542 265.751,241.217 265.647,241.583 265.601 C 241.950 265.555,243.188 265.372,244.333 265.193 C 245.479 265.014,246.529 264.862,246.667 264.856 C 247.550 264.815,250.479 264.282,256.000 263.157 C 257.787 262.793,259.400 262.465,259.583 262.428 C 259.767 262.391,260.292 262.275,260.750 262.169 C 261.208 262.063,261.771 261.952,262.000 261.921 C 262.229 261.890,263.429 261.625,264.667 261.331 C 265.904 261.038,267.404 260.682,268.000 260.541 C 268.596 260.400,269.107 260.225,269.136 260.152 C 269.165 260.079,269.296 260.060,269.427 260.111 C 269.559 260.161,269.667 260.114,269.667 260.007 C 269.667 259.883,269.797 259.852,270.021 259.923 C 270.232 259.990,270.335 259.971,270.276 259.875 C 270.218 259.782,270.348 259.748,270.585 259.793 C 271.158 259.902,271.874 259.700,271.731 259.469 C 271.660 259.354,271.690 259.328,271.810 259.402 C 272.032 259.539,273.834 259.205,273.810 259.031 C 273.767 258.725,273.853 258.606,273.977 258.801 C 274.066 258.943,274.270 258.980,274.556 258.909 C 274.799 258.848,274.961 258.738,274.915 258.664 C 274.870 258.591,274.995 258.573,275.192 258.625 C 275.421 258.685,275.513 258.655,275.444 258.544 C 275.384 258.447,275.445 258.326,275.579 258.275 C 275.713 258.223,275.861 258.243,275.907 258.318 C 275.954 258.394,276.290 258.376,276.653 258.279 C 277.016 258.182,277.280 258.048,277.238 257.980 C 277.123 257.794,277.788 257.630,278.167 257.750 C 278.354 257.809,278.500 257.780,278.500 257.683 C 278.500 257.588,278.625 257.558,278.777 257.617 C 278.959 257.687,279.015 257.658,278.939 257.536 C 278.860 257.408,278.983 257.368,279.326 257.411 C 279.603 257.447,279.870 257.409,279.920 257.328 C 280.011 257.180,279.067 255.157,278.833 255.000 C 278.765 254.954,278.327 254.129,277.860 253.167 C 277.392 252.204,276.494 250.442,275.863 249.250 C 275.233 248.058,274.042 245.808,273.218 244.250 C 271.736 241.446,270.255 238.939,268.222 235.792 C 266.993 233.890,267.660 234.033,262.667 234.598 " stroke="none" fill="" fill-rule="evenodd"></path><path id="path3" d="M345.172 43.925 C 345.166 44.129,345.506 44.500,345.700 44.500 C 345.773 44.500,345.833 44.421,345.833 44.323 C 345.833 44.226,345.763 44.190,345.677 44.244 C 345.591 44.297,345.443 44.208,345.349 44.045 C 345.254 43.883,345.175 43.829,345.172 43.925 M348.593 46.736 C 348.942 46.992,349.100 46.964,348.924 46.678 C 348.863 46.580,348.691 46.500,348.542 46.500 C 348.314 46.500,348.323 46.539,348.593 46.736 M349.250 47.000 C 349.319 47.229,349.320 47.365,349.254 47.303 C 349.123 47.179,347.854 47.782,347.583 48.096 C 347.492 48.202,346.929 48.615,346.333 49.012 C 345.738 49.409,345.175 49.795,345.083 49.870 C 344.992 49.945,344.429 50.315,343.833 50.691 C 343.238 51.068,342.712 51.425,342.667 51.485 C 342.482 51.726,341.089 52.667,340.915 52.667 C 340.813 52.667,340.584 52.799,340.406 52.961 C 340.229 53.123,339.558 53.625,338.917 54.078 C 338.275 54.530,337.725 54.960,337.694 55.033 C 337.664 55.107,337.545 55.167,337.430 55.167 C 337.206 55.167,335.552 56.283,334.962 56.833 C 334.764 57.017,334.266 57.331,333.856 57.530 C 333.445 57.728,332.976 58.024,332.813 58.187 C 332.651 58.349,331.483 59.173,330.217 60.018 C 328.952 60.863,327.609 61.805,327.233 62.111 C 326.857 62.416,326.473 62.667,326.381 62.667 C 326.288 62.667,325.696 63.051,325.064 63.520 C 324.433 63.990,323.279 64.787,322.500 65.293 C 321.721 65.798,320.647 66.554,320.113 66.973 C 319.355 67.568,319.003 67.736,318.505 67.742 C 318.154 67.747,317.901 67.806,317.943 67.875 C 317.985 67.944,318.132 68.000,318.270 68.000 C 318.407 68.000,318.481 68.063,318.434 68.139 C 318.387 68.215,318.457 68.290,318.591 68.306 C 318.724 68.321,318.946 68.346,319.083 68.361 C 319.221 68.376,319.333 68.443,319.333 68.510 C 319.333 68.621,320.168 68.896,320.315 68.833 C 320.350 68.817,320.425 68.868,320.481 68.944 C 320.667 69.198,322.029 69.835,322.183 69.740 C 322.265 69.689,322.333 69.710,322.333 69.788 C 322.333 69.865,322.483 69.943,322.667 69.960 C 323.371 70.027,323.497 70.058,323.412 70.144 C 323.324 70.231,324.440 70.833,324.689 70.833 C 324.760 70.833,325.190 71.052,325.645 71.320 C 326.099 71.588,326.515 71.763,326.569 71.709 C 326.623 71.655,326.667 71.699,326.667 71.806 C 326.667 71.912,326.723 71.985,326.792 71.967 C 326.998 71.912,327.667 72.180,327.667 72.317 C 327.667 72.387,327.764 72.444,327.882 72.444 C 328.001 72.444,328.919 72.919,329.924 73.498 C 330.928 74.078,331.844 74.553,331.958 74.554 C 332.073 74.555,332.167 74.618,332.167 74.694 C 332.167 74.771,332.317 74.833,332.500 74.833 C 332.683 74.833,332.833 74.908,332.833 75.000 C 332.833 75.092,332.946 75.167,333.083 75.167 C 333.221 75.167,333.333 75.225,333.333 75.297 C 333.333 75.368,333.540 75.517,333.792 75.627 C 334.407 75.895,335.316 76.459,335.615 76.757 C 335.748 76.891,335.927 77.009,336.012 77.021 C 336.097 77.032,336.223 77.051,336.292 77.063 C 336.467 77.094,337.732 77.874,337.833 78.014 C 337.879 78.077,338.149 78.269,338.433 78.440 C 339.449 79.051,342.922 81.390,343.200 81.651 C 343.625 82.049,343.873 82.227,344.333 82.466 C 344.563 82.585,345.200 83.091,345.750 83.590 C 346.300 84.089,346.806 84.498,346.875 84.499 C 346.944 84.499,347.142 84.631,347.317 84.792 C 347.491 84.952,347.928 85.346,348.289 85.667 C 348.650 85.987,349.176 86.456,349.458 86.708 C 349.740 86.960,350.016 87.167,350.071 87.167 C 350.323 87.167,358.000 95.039,358.000 95.297 C 358.000 95.426,359.560 97.260,359.831 97.450 C 359.990 97.562,360.215 97.881,360.331 98.160 C 360.446 98.439,360.601 98.667,360.676 98.667 C 360.750 98.667,360.854 98.798,360.908 98.958 C 360.961 99.119,361.271 99.550,361.596 99.917 C 361.922 100.283,362.289 100.771,362.413 101.000 C 362.697 101.525,364.755 104.685,364.979 104.941 C 365.071 105.045,365.101 105.177,365.046 105.232 C 364.990 105.288,365.036 105.333,365.149 105.333 C 365.261 105.333,365.314 105.396,365.267 105.472 C 365.191 105.596,365.326 105.848,366.130 107.087 C 366.427 107.545,369.060 112.953,369.333 113.667 C 369.455 113.987,369.619 114.333,369.696 114.435 C 369.773 114.537,370.064 115.287,370.343 116.102 C 371.497 119.470,372.533 122.604,372.595 122.917 C 372.650 123.194,372.778 123.755,372.928 124.375 C 372.945 124.444,372.974 124.519,372.993 124.542 C 373.012 124.565,373.048 124.733,373.073 124.917 C 373.098 125.100,373.385 126.487,373.711 128.000 C 374.037 129.512,374.355 131.219,374.418 131.791 C 374.491 132.457,374.596 132.794,374.709 132.724 C 374.818 132.657,374.835 132.696,374.754 132.826 C 374.678 132.949,374.720 133.098,374.854 133.183 C 375.020 133.288,375.026 133.329,374.875 133.331 C 374.760 133.332,374.668 133.465,374.669 133.625 C 374.671 133.849,374.705 133.865,374.813 133.694 C 374.895 133.565,374.920 133.825,374.872 134.318 C 374.826 134.802,374.868 135.257,374.970 135.381 C 375.074 135.506,375.114 135.976,375.066 136.506 C 374.996 137.271,375.017 137.374,375.200 137.153 C 375.447 136.852,377.622 135.282,378.000 135.131 C 378.137 135.077,378.925 134.529,379.750 133.915 C 380.575 133.301,381.404 132.739,381.593 132.666 C 381.781 132.593,382.156 132.349,382.426 132.124 C 382.696 131.899,383.955 131.022,385.225 130.174 C 386.494 129.327,387.674 128.492,387.848 128.319 C 388.021 128.145,388.483 127.853,388.873 127.669 C 389.264 127.485,389.808 127.138,390.083 126.899 C 390.358 126.660,391.585 125.795,392.809 124.977 C 394.033 124.159,395.154 123.369,395.301 123.222 C 395.449 123.075,395.760 122.871,395.993 122.768 C 397.468 122.115,397.750 121.726,397.694 120.417 C 397.683 120.142,397.671 119.748,397.668 119.542 C 397.665 119.335,397.602 119.167,397.527 119.167 C 397.452 119.167,397.426 118.931,397.468 118.643 C 397.527 118.243,397.494 118.151,397.327 118.254 C 397.169 118.352,397.140 118.309,397.222 118.097 C 397.389 117.661,397.163 116.483,396.938 116.618 C 396.834 116.680,396.850 116.607,396.973 116.456 C 397.102 116.297,397.138 116.091,397.060 115.966 C 396.986 115.847,396.902 115.563,396.874 115.333 C 396.846 115.104,396.778 114.804,396.723 114.667 C 396.668 114.529,396.595 114.192,396.561 113.917 C 396.526 113.642,396.391 113.079,396.259 112.667 C 396.127 112.254,395.787 111.054,395.502 110.000 C 394.795 107.378,393.212 102.720,392.048 99.833 C 391.992 99.696,391.959 99.527,391.974 99.458 C 391.988 99.390,391.937 99.333,391.861 99.333 C 391.785 99.333,391.722 99.240,391.721 99.125 C 391.721 99.010,391.333 98.101,390.860 97.105 C 390.387 96.108,390.000 95.190,390.000 95.063 C 390.000 94.937,389.925 94.833,389.833 94.833 C 389.742 94.833,389.667 94.718,389.667 94.577 C 389.667 94.435,389.357 93.745,388.978 93.042 C 388.599 92.340,387.882 90.974,387.385 90.008 C 386.887 89.041,386.181 87.763,385.816 87.167 C 385.451 86.571,385.083 85.916,384.998 85.711 C 384.779 85.182,381.972 80.892,379.507 77.319 C 379.091 76.715,378.450 75.864,378.083 75.429 C 377.717 74.993,377.388 74.550,377.353 74.443 C 377.278 74.217,376.320 73.003,375.556 72.167 C 375.263 71.846,375.036 71.546,375.050 71.500 C 375.077 71.417,374.711 70.972,373.412 69.507 C 373.042 69.091,372.394 68.337,371.971 67.833 C 371.548 67.329,370.756 66.448,370.212 65.875 C 369.667 65.302,369.256 64.833,369.300 64.833 C 369.386 64.833,362.081 57.579,360.656 56.250 C 360.164 55.792,359.719 55.417,359.666 55.417 C 359.575 55.417,359.176 55.051,357.833 53.736 C 357.512 53.422,357.156 53.166,357.042 53.166 C 356.927 53.166,356.852 53.099,356.875 53.017 C 356.898 52.934,356.858 52.861,356.787 52.855 C 356.716 52.848,356.328 52.534,355.926 52.157 C 355.523 51.780,355.131 51.461,355.055 51.449 C 354.979 51.437,354.736 51.212,354.516 50.951 C 354.250 50.635,354.009 50.502,353.798 50.557 C 353.534 50.626,353.515 50.599,353.685 50.394 C 353.798 50.259,353.821 50.169,353.737 50.195 C 353.522 50.260,352.154 49.235,352.283 49.106 C 352.341 49.047,352.259 49.000,352.101 49.000 C 351.926 49.000,351.860 48.925,351.933 48.808 C 352.004 48.693,351.979 48.660,351.870 48.727 C 351.771 48.789,351.570 48.669,351.425 48.461 C 351.279 48.253,351.143 48.107,351.122 48.136 C 351.044 48.242,350.504 47.961,350.573 47.850 C 350.612 47.787,350.481 47.724,350.283 47.709 C 350.084 47.694,349.898 47.610,349.869 47.523 C 349.840 47.436,349.661 47.188,349.471 46.974 L 349.126 46.583 349.250 47.000 M312.802 66.004 C 313.105 66.189,313.424 66.297,313.510 66.244 C 313.596 66.191,313.667 66.218,313.667 66.304 C 313.667 66.390,313.798 66.507,313.958 66.564 C 314.119 66.621,314.353 66.714,314.479 66.771 C 314.618 66.834,314.681 66.794,314.640 66.670 C 314.574 66.472,312.797 65.666,312.430 65.667 C 312.331 65.668,312.498 65.819,312.802 66.004 M375.131 138.025 C 375.029 138.329,375.179 139.000,375.349 139.000 C 375.427 139.000,375.445 138.756,375.389 138.458 C 375.266 137.813,375.224 137.744,375.131 138.025 M375.291 141.546 C 375.395 142.478,375.500 142.557,375.500 141.704 C 375.500 141.328,375.435 140.980,375.356 140.930 C 375.276 140.881,375.247 141.158,375.291 141.546 M375.186 151.195 C 375.175 151.348,375.124 151.610,375.071 151.778 C 374.980 152.067,374.985 152.068,375.165 151.786 C 375.270 151.623,375.322 151.361,375.281 151.203 C 375.213 150.945,375.203 150.944,375.186 151.195 M112.833 202.788 C 112.833 202.893,113.276 203.257,113.708 203.509 C 113.933 203.639,114.000 203.620,114.000 203.423 C 114.000 203.282,113.894 203.167,113.764 203.167 C 113.634 203.167,113.499 203.079,113.463 202.973 C 113.399 202.780,112.833 202.614,112.833 202.788 M114.287 203.610 C 114.146 203.834,115.421 204.839,115.825 204.823 C 115.967 204.817,115.897 204.738,115.668 204.647 C 115.439 204.555,115.192 204.373,115.118 204.240 C 115.044 204.108,114.880 204.000,114.754 204.000 C 114.628 204.000,114.498 203.869,114.467 203.708 C 114.428 203.512,114.369 203.480,114.287 203.610 M115.918 206.666 C 115.326 207.114,114.585 207.602,114.272 207.751 C 113.958 207.900,113.413 208.265,113.059 208.564 C 112.174 209.311,110.992 210.098,110.542 210.238 C 110.335 210.303,110.167 210.415,110.167 210.487 C 110.167 210.559,109.628 210.976,108.971 211.413 C 108.313 211.850,107.694 212.275,107.596 212.358 C 107.497 212.440,106.929 212.815,106.333 213.191 C 105.737 213.568,105.212 213.925,105.167 213.985 C 104.982 214.226,103.589 215.167,103.415 215.167 C 103.313 215.167,103.084 215.299,102.906 215.461 C 102.729 215.623,102.058 216.125,101.417 216.578 C 100.775 217.030,100.225 217.460,100.194 217.533 C 100.164 217.607,100.045 217.667,99.930 217.667 C 99.706 217.667,98.052 218.783,97.462 219.333 C 97.264 219.517,96.766 219.831,96.356 220.030 C 95.945 220.228,95.476 220.524,95.313 220.687 C 95.151 220.849,93.983 221.673,92.717 222.518 C 91.452 223.363,90.109 224.305,89.733 224.611 C 89.357 224.916,88.973 225.167,88.881 225.167 C 88.788 225.167,88.196 225.550,87.564 226.019 C 86.933 226.488,85.704 227.340,84.833 227.912 C 83.962 228.484,82.950 229.195,82.583 229.491 C 82.217 229.788,81.686 230.126,81.405 230.244 C 81.123 230.362,80.635 230.680,80.321 230.951 C 80.007 231.222,78.813 232.066,77.667 232.826 C 76.521 233.586,75.433 234.341,75.250 234.504 C 75.067 234.667,74.617 234.967,74.251 235.171 C 72.185 236.318,71.095 237.500,72.104 237.500 C 72.230 237.500,72.333 237.558,72.333 237.628 C 72.333 237.699,72.688 237.943,73.122 238.170 C 73.556 238.397,74.011 238.677,74.134 238.792 C 74.257 238.906,74.506 239.000,74.688 239.000 C 74.871 239.000,74.979 239.066,74.928 239.148 C 74.830 239.307,75.439 239.555,75.808 239.507 C 75.932 239.491,75.984 239.558,75.924 239.656 C 75.863 239.754,75.935 239.833,76.085 239.833 C 76.373 239.833,77.846 240.632,78.019 240.881 C 78.075 240.962,78.167 241.029,78.223 241.029 C 78.510 241.030,79.000 241.221,79.000 241.332 C 79.000 241.474,80.679 242.250,80.875 242.199 C 80.944 242.181,81.000 242.242,81.000 242.333 C 81.000 242.425,81.056 242.486,81.125 242.469 C 81.325 242.419,82.543 242.987,82.869 243.282 C 83.033 243.430,83.167 243.506,83.167 243.449 C 83.167 243.393,83.717 243.644,84.389 244.007 C 85.062 244.369,85.662 244.616,85.723 244.555 C 85.783 244.494,85.833 244.532,85.833 244.639 C 85.833 244.746,85.944 244.833,86.079 244.833 C 86.385 244.833,87.840 245.511,88.137 245.792 C 88.258 245.906,88.462 246.000,88.591 246.000 C 88.784 246.000,90.189 246.643,91.539 247.349 C 91.699 247.432,91.975 247.500,92.155 247.500 C 92.334 247.500,92.522 247.567,92.572 247.648 C 92.622 247.730,92.867 247.848,93.117 247.910 C 93.366 247.973,94.173 248.311,94.910 248.663 C 95.647 249.014,97.150 249.638,98.250 250.049 C 99.350 250.460,101.222 251.180,102.411 251.648 C 103.600 252.117,104.676 252.500,104.802 252.500 C 104.929 252.500,105.269 252.607,105.558 252.737 C 105.847 252.867,106.571 253.143,107.167 253.349 C 107.763 253.554,108.325 253.777,108.417 253.842 C 108.508 253.908,109.371 254.204,110.333 254.500 C 111.296 254.797,113.658 255.549,115.583 256.170 C 117.508 256.792,119.325 257.339,119.620 257.385 C 119.915 257.431,120.627 257.620,121.203 257.803 C 121.779 257.987,122.662 258.256,123.167 258.400 C 123.671 258.544,124.871 258.893,125.833 259.176 C 126.796 259.458,128.108 259.787,128.750 259.906 C 129.392 260.026,131.406 260.507,133.226 260.975 C 136.685 261.866,138.520 262.276,139.709 262.426 C 140.098 262.474,141.579 262.769,143.000 263.080 C 144.421 263.392,146.258 263.767,147.083 263.914 C 147.908 264.062,149.108 264.290,149.750 264.422 C 150.392 264.553,151.254 264.699,151.667 264.745 C 153.228 264.921,153.992 265.027,156.583 265.429 C 160.117 265.977,163.835 266.500,164.204 266.500 C 164.488 266.500,164.499 265.599,164.459 246.792 L 164.417 227.083 163.083 226.646 C 160.412 225.771,158.976 225.334,158.486 225.248 C 158.211 225.199,156.508 224.611,154.701 223.940 C 152.895 223.269,151.192 222.665,150.917 222.597 C 150.642 222.530,150.192 222.375,149.917 222.254 C 148.602 221.677,145.622 220.475,144.518 220.078 C 143.841 219.834,142.361 219.192,141.230 218.651 C 140.098 218.109,139.099 217.667,139.009 217.667 C 138.793 217.667,137.693 217.165,137.167 216.826 C 136.938 216.679,136.487 216.456,136.167 216.331 C 135.846 216.206,135.321 215.941,135.000 215.743 C 134.679 215.544,134.342 215.361,134.250 215.336 C 133.726 215.194,133.528 215.119,133.000 214.866 C 132.679 214.712,132.379 214.539,132.333 214.480 C 132.287 214.421,131.237 213.866,130.000 213.245 C 128.762 212.625,127.356 211.867,126.875 211.561 C 126.394 211.255,126.000 211.044,126.000 211.092 C 126.000 211.140,125.839 211.029,125.641 210.846 C 125.444 210.662,125.219 210.551,125.141 210.599 C 125.064 210.647,125.000 210.602,125.000 210.500 C 125.000 210.398,124.930 210.357,124.844 210.410 C 124.758 210.464,124.626 210.405,124.552 210.281 C 124.478 210.157,124.060 209.880,123.624 209.665 C 123.189 209.450,122.665 209.118,122.462 208.928 C 122.258 208.739,122.052 208.603,122.004 208.626 C 121.956 208.650,121.785 208.557,121.625 208.420 C 121.465 208.282,121.332 208.225,121.331 208.293 C 121.329 208.361,121.273 208.342,121.206 208.250 C 120.985 207.950,120.420 207.556,120.572 207.809 C 120.661 207.958,120.559 207.937,120.271 207.748 C 120.030 207.591,119.833 207.395,119.833 207.314 C 119.833 207.233,119.721 207.167,119.583 207.167 C 119.446 207.167,119.333 207.087,119.333 206.990 C 119.333 206.893,119.267 206.855,119.186 206.905 C 119.104 206.955,118.941 206.880,118.823 206.737 C 118.573 206.437,117.778 206.002,117.314 205.913 C 117.121 205.876,116.567 206.175,115.918 206.666 M68.500 235.381 C 68.500 235.704,68.695 235.836,69.294 235.920 C 69.545 235.956,69.658 235.945,69.546 235.896 C 69.434 235.848,69.297 235.819,69.242 235.832 C 69.186 235.845,68.997 235.689,68.821 235.485 C 68.571 235.197,68.500 235.174,68.500 235.381 M236.294 236.118 C 236.501 236.158,236.801 236.156,236.960 236.115 C 237.120 236.073,236.950 236.040,236.583 236.042 C 236.217 236.044,236.086 236.078,236.294 236.118 M70.464 236.556 C 70.673 236.672,70.798 236.814,70.741 236.870 C 70.684 236.927,70.813 237.066,71.027 237.180 C 71.395 237.376,71.403 237.370,71.175 237.069 C 70.841 236.628,70.470 236.332,70.260 236.339 C 70.163 236.342,70.254 236.440,70.464 236.556 " stroke="none" fill="" fill-rule="evenodd"></path><path id="path4" d="M379.183 191.833 C 378.518 192.292,377.945 192.667,377.911 192.667 C 377.795 192.667,375.586 194.228,375.036 194.698 C 374.735 194.956,374.397 195.168,374.286 195.171 C 374.174 195.173,373.746 195.434,373.333 195.752 C 372.366 196.495,370.798 197.597,370.583 197.683 C 370.491 197.720,369.795 198.200,369.035 198.750 C 368.276 199.300,367.441 199.867,367.181 200.011 C 366.921 200.154,366.096 200.716,365.349 201.261 C 364.601 201.805,363.740 202.400,363.436 202.583 C 362.416 203.197,360.409 204.624,360.183 204.897 C 360.060 205.045,359.874 205.167,359.769 205.167 C 359.534 205.167,358.019 206.178,357.413 206.739 C 357.167 206.967,356.644 207.309,356.252 207.499 C 355.859 207.689,355.361 208.000,355.144 208.191 C 354.927 208.381,354.300 208.842,353.750 209.215 C 353.200 209.588,352.725 209.955,352.694 210.030 C 352.664 210.105,352.555 210.167,352.452 210.167 C 352.264 210.167,350.442 211.384,350.032 211.783 C 349.912 211.900,349.350 212.267,348.782 212.599 C 348.214 212.931,347.712 213.259,347.667 213.328 C 347.621 213.396,346.533 214.150,345.250 215.003 C 343.967 215.856,342.744 216.723,342.533 216.929 C 342.323 217.136,341.821 217.459,341.419 217.648 C 341.017 217.837,340.439 218.206,340.135 218.467 C 339.832 218.729,338.646 219.563,337.500 220.322 C 336.354 221.081,335.267 221.836,335.083 222.001 C 334.900 222.166,334.466 222.458,334.119 222.651 L 333.487 223.001 332.188 221.688 C 331.473 220.966,330.707 220.280,330.486 220.165 C 330.000 219.912,330.040 219.957,331.000 220.751 C 332.944 222.360,335.311 225.393,336.918 228.336 C 338.422 231.089,338.376 231.041,339.000 230.500 C 339.211 230.317,339.448 230.167,339.526 230.167 C 339.603 230.167,339.817 230.017,340.000 229.833 C 340.183 229.650,340.446 229.500,340.583 229.500 C 340.721 229.500,340.833 229.421,340.833 229.323 C 340.833 229.226,340.895 229.185,340.970 229.232 C 341.045 229.278,341.402 229.055,341.762 228.735 C 342.122 228.416,342.735 227.963,343.125 227.728 C 343.515 227.494,343.833 227.234,343.833 227.151 C 343.833 227.068,343.912 227.000,344.009 227.000 C 344.274 227.000,346.167 225.678,346.167 225.494 C 346.167 225.406,346.279 225.333,346.417 225.333 C 346.554 225.333,346.667 225.258,346.667 225.167 C 346.667 225.075,346.736 225.019,346.822 225.042 C 346.907 225.065,347.100 224.933,347.251 224.750 C 347.401 224.567,347.475 224.529,347.415 224.667 C 347.354 224.804,347.459 224.729,347.648 224.500 C 347.838 224.271,347.994 224.144,347.996 224.219 C 348.001 224.378,349.500 223.329,349.500 223.166 C 349.500 223.106,349.813 222.804,350.196 222.497 C 350.579 222.189,350.833 222.032,350.762 222.148 C 350.658 222.315,350.701 222.315,350.972 222.146 C 351.159 222.029,351.275 221.873,351.229 221.800 C 351.184 221.727,351.260 221.667,351.399 221.667 C 351.537 221.667,351.710 221.563,351.783 221.435 C 351.962 221.126,353.833 219.613,353.833 219.778 C 353.833 219.849,353.950 219.741,354.093 219.537 C 354.235 219.333,354.455 219.167,354.582 219.167 C 354.708 219.167,354.853 219.033,354.905 218.869 C 354.957 218.706,355.206 218.449,355.458 218.298 C 355.710 218.148,356.251 217.701,356.659 217.307 C 357.067 216.912,357.334 216.701,357.252 216.836 C 357.170 216.972,357.417 216.758,357.801 216.361 C 358.186 215.964,358.500 215.681,358.500 215.731 C 358.500 215.781,358.728 215.600,359.006 215.328 C 359.284 215.056,359.588 214.833,359.682 214.833 C 359.776 214.833,359.819 214.777,359.777 214.708 C 359.736 214.640,359.806 214.487,359.934 214.368 C 360.062 214.250,360.167 214.210,360.167 214.279 C 360.167 214.348,360.519 214.032,360.950 213.577 C 361.380 213.122,361.812 212.775,361.908 212.806 C 362.004 212.836,362.031 212.808,361.966 212.744 C 361.852 212.630,362.290 212.083,362.496 212.083 C 362.672 212.083,363.484 211.208,363.407 211.101 C 363.366 211.045,363.386 211.040,363.450 211.089 C 363.611 211.211,367.004 207.808,366.896 207.633 C 366.848 207.555,366.908 207.512,367.029 207.538 C 367.151 207.563,367.234 207.499,367.215 207.396 C 367.176 207.182,368.234 206.167,368.496 206.167 C 368.590 206.167,368.667 206.063,368.667 205.936 C 368.667 205.809,368.854 205.582,369.083 205.432 C 369.313 205.282,369.500 205.060,369.500 204.940 C 369.500 204.819,369.744 204.497,370.042 204.223 C 370.340 203.950,370.837 203.413,371.147 203.030 C 371.457 202.647,371.825 202.333,371.966 202.333 C 372.107 202.333,372.175 202.287,372.118 202.229 C 372.061 202.172,372.146 202.003,372.307 201.854 C 372.467 201.705,372.500 201.650,372.379 201.732 C 371.885 202.066,372.072 201.719,372.594 201.333 C 372.904 201.104,373.160 200.818,373.162 200.698 C 373.165 200.579,373.242 200.527,373.333 200.583 C 373.486 200.678,373.574 200.450,373.516 200.113 C 373.502 200.037,373.563 200.020,373.651 200.074 C 373.739 200.128,373.857 200.096,373.915 200.003 C 373.973 199.910,373.930 199.833,373.821 199.833 C 373.711 199.833,373.820 199.677,374.062 199.487 C 374.315 199.288,374.453 199.057,374.386 198.945 C 374.322 198.838,374.398 198.854,374.555 198.982 C 374.802 199.182,374.828 199.180,374.745 198.965 C 374.687 198.813,374.811 198.611,375.062 198.446 C 375.289 198.297,375.522 198.027,375.579 197.846 C 375.637 197.665,375.836 197.469,376.021 197.410 C 376.207 197.351,376.318 197.262,376.268 197.213 C 376.123 197.067,376.502 196.481,376.673 196.587 C 376.761 196.642,376.782 196.560,376.720 196.398 C 376.651 196.218,376.675 196.152,376.786 196.221 C 376.883 196.281,377.064 196.204,377.189 196.050 C 377.385 195.809,377.381 195.787,377.167 195.897 C 377.022 195.971,377.040 195.924,377.208 195.786 C 377.369 195.654,377.500 195.456,377.500 195.345 C 377.500 195.235,377.773 194.887,378.107 194.572 C 378.440 194.257,378.647 193.998,378.565 193.995 C 378.483 193.992,378.548 193.913,378.708 193.820 C 378.869 193.727,379.000 193.541,379.000 193.408 C 379.000 193.275,379.075 193.167,379.167 193.167 C 379.258 193.167,379.333 193.044,379.333 192.893 C 379.333 192.743,379.558 192.405,379.832 192.143 C 380.106 191.881,380.282 191.667,380.223 191.667 C 380.163 191.667,380.251 191.517,380.417 191.333 C 380.929 190.767,380.447 190.962,379.183 191.833 M329.000 219.061 C 329.000 219.106,329.225 219.304,329.500 219.500 C 329.775 219.696,330.000 219.819,330.000 219.773 C 330.000 219.727,329.775 219.529,329.500 219.333 C 329.225 219.138,329.000 219.015,329.000 219.061 M278.181 253.750 C 278.181 253.842,278.324 254.179,278.500 254.500 C 278.676 254.821,278.819 255.008,278.819 254.917 C 278.819 254.825,278.676 254.487,278.500 254.167 C 278.324 253.846,278.181 253.658,278.181 253.750 M277.333 257.841 C 277.151 257.964,277.218 257.980,277.583 257.898 C 278.196 257.761,278.329 257.666,277.903 257.669 C 277.727 257.671,277.471 257.748,277.333 257.841 M261.500 262.000 C 261.157 262.110,261.142 262.136,261.417 262.148 C 261.600 262.155,261.862 262.089,262.000 262.000 C 262.292 261.811,262.089 261.811,261.500 262.000 " stroke="none" fill="" fill-rule="evenodd"></path><path id="path5" d="M327.417 218.113 C 327.508 218.202,327.996 218.553,328.500 218.894 C 329.163 219.342,329.270 219.385,328.888 219.049 C 328.394 218.614,327.051 217.760,327.417 218.113 M330.833 220.735 C 331.244 221.193,332.167 221.921,332.167 221.787 C 332.167 221.750,331.773 221.393,331.292 220.995 C 330.794 220.583,330.596 220.471,330.833 220.735 M333.674 223.667 C 334.671 224.917,335.038 225.303,334.545 224.583 C 334.357 224.308,333.890 223.746,333.506 223.333 C 332.941 222.724,332.972 222.787,333.674 223.667 M336.583 228.000 C 336.816 228.458,337.043 228.833,337.089 228.833 C 337.135 228.833,336.982 228.458,336.750 228.000 C 336.518 227.542,336.290 227.167,336.244 227.167 C 336.199 227.167,336.351 227.542,336.583 228.000 M268.421 236.094 C 268.576 236.375,268.851 236.788,269.032 237.011 L 269.361 237.417 269.079 236.906 C 268.924 236.625,268.649 236.212,268.468 235.989 L 268.139 235.583 268.421 236.094 M232.580 251.417 C 232.580 259.850,232.600 263.324,232.625 259.138 C 232.650 254.951,232.650 248.051,232.625 243.804 C 232.600 239.558,232.580 242.983,232.580 251.417 M271.411 240.917 C 271.668 241.375,271.955 241.825,272.050 241.917 C 272.144 242.008,272.012 241.708,271.755 241.250 C 271.499 240.792,271.212 240.342,271.117 240.250 C 271.023 240.158,271.155 240.458,271.411 240.917 M273.083 244.000 C 273.316 244.458,273.543 244.833,273.589 244.833 C 273.635 244.833,273.482 244.458,273.250 244.000 C 273.018 243.542,272.790 243.167,272.744 243.167 C 272.699 243.167,272.851 243.542,273.083 244.000 M274.417 246.500 C 274.559 246.775,274.713 247.000,274.759 247.000 C 274.804 247.000,274.726 246.775,274.583 246.500 C 274.441 246.225,274.287 246.000,274.241 246.000 C 274.196 246.000,274.274 246.225,274.417 246.500 M275.917 249.333 C 276.240 249.975,276.542 250.500,276.588 250.500 C 276.633 250.500,276.406 249.975,276.083 249.333 C 275.760 248.692,275.458 248.167,275.412 248.167 C 275.367 248.167,275.594 248.692,275.917 249.333 M278.583 254.333 C 278.906 254.975,279.208 255.500,279.254 255.500 C 279.300 255.500,279.073 254.975,278.750 254.333 C 278.427 253.692,278.125 253.167,278.079 253.167 C 278.033 253.167,278.260 253.692,278.583 254.333 M164.573 262.167 C 164.573 264.596,164.596 265.590,164.625 264.375 C 164.653 263.160,164.653 261.173,164.625 259.958 C 164.596 258.744,164.573 259.737,164.573 262.167 " stroke="none" fill="" fill-rule="evenodd"></path></g></svg>